<svg width="28" height="27" viewBox="0 0 28 27" fill="none" xmlns="http://www.w3.org/2000/svg">
<path d="M27.2658 19.7588L23.3501 16.0016C21.9516 14.6598 19.5742 15.1966 19.0148 16.9409C18.5953 18.1486 17.1968 18.8196 15.9382 18.5511C13.1413 17.8802 9.3654 14.3914 8.66616 11.5735C8.24662 10.3658 9.0857 9.02392 10.3443 8.62141C12.1623 8.08467 12.7217 5.80352 11.3232 4.46167L7.40754 0.704473C6.28877 -0.234824 4.61061 -0.234824 3.63169 0.704473L0.974601 3.254C-1.68248 5.93771 1.25429 13.0495 7.82709 19.3562C14.3999 25.663 21.8117 28.6151 24.6087 25.9313L27.2658 23.3818C28.2447 22.3083 28.2447 20.6981 27.2658 19.7588Z" fill="#96C12A"/>
</svg>
