<svg width="50" height="50" viewBox="0 0 50 50" fill="none" xmlns="http://www.w3.org/2000/svg">
<path d="M46.4998 22.5939L45.205 17.4146C45.559 17.3395 45.8246 17.0254 45.8246 16.6491V15.8141C45.8246 14.001 44.3495 12.526 42.5365 12.526H36.6389V10.8035C36.6389 9.91133 35.9131 9.18555 35.0209 9.18555H4.9582C4.06602 9.18555 3.34023 9.91133 3.34023 10.8035V24.9998C3.34023 25.4321 3.69072 25.7827 4.12314 25.7827C4.55547 25.7827 4.90605 25.4322 4.90605 24.9998V10.8035C4.90605 10.7747 4.92939 10.7514 4.9582 10.7514H35.0208C35.0496 10.7514 35.0729 10.7747 35.0729 10.8035V25C35.0729 25.4323 35.4234 25.7829 35.8559 25.7829C36.2882 25.7829 36.6388 25.4324 36.6388 25V24.1125H45.874C45.8748 24.1125 45.8754 24.1127 45.8761 24.1127C45.8769 24.1127 45.8775 24.1126 45.8782 24.1126C47.0146 24.1134 47.9796 24.8593 48.311 25.8871H45.8767C45.4443 25.8871 45.0938 26.2376 45.0938 26.67V28.3401C45.0938 29.6928 46.1941 30.7932 47.5468 30.7932H48.4341V34.2378H46.387C45.7146 32.2961 43.8687 30.8975 41.7013 30.8975C39.5338 30.8975 37.6879 32.2961 37.0155 34.2378H36.6386V28.34C36.6386 27.9077 36.2881 27.5571 35.8557 27.5571C35.4233 27.5571 35.0728 27.9076 35.0728 28.34V34.2376H18.8298C18.1573 32.2959 16.3115 30.8973 14.144 30.8973C11.9766 30.8973 10.1307 32.2959 9.4583 34.2376H4.9582C4.92939 34.2376 4.90605 34.2143 4.90605 34.1855V32.4631H8.29854C8.73086 32.4631 9.08145 32.1126 9.08145 31.6802C9.08145 31.2478 8.73096 30.8973 8.29854 30.8973H0.78291C0.350586 30.8973 0 31.2478 0 31.6802C0 32.1126 0.350488 32.4631 0.78291 32.4631H3.34033V34.1855C3.34033 35.0776 4.06611 35.8034 4.9583 35.8034H9.18721C9.18701 35.8208 9.18584 35.8381 9.18584 35.8556C9.18584 38.5896 11.4102 40.8138 14.144 40.8138C16.8779 40.8138 19.1022 38.5896 19.1022 35.8556C19.1022 35.838 19.1011 35.8208 19.1009 35.8034H36.7444C36.7442 35.8208 36.7431 35.8381 36.7431 35.8556C36.7431 38.5896 38.9674 40.8138 41.7013 40.8138C44.4352 40.8138 46.6595 38.5896 46.6595 35.8556C46.6595 35.838 46.6583 35.8208 46.6581 35.8034H49.217C49.6493 35.8034 49.9999 35.4529 49.9999 35.0205V26.6698C50 24.6081 48.4788 22.8951 46.4998 22.5939ZM36.6389 14.0917H42.5365C43.4862 14.0917 44.2589 14.8644 44.2589 15.8141V15.8662H36.6389V14.0917ZM36.6389 22.5468V17.4319H43.5954L44.8741 22.5468H36.6389ZM14.144 39.2482C12.2734 39.2482 10.7516 37.7265 10.7516 35.8558C10.7516 33.9851 12.2734 32.4633 14.144 32.4633C16.0146 32.4633 17.5365 33.9851 17.5365 35.8558C17.5365 37.7265 16.0146 39.2482 14.144 39.2482ZM41.7015 39.2482C39.8309 39.2482 38.309 37.7265 38.309 35.8558C38.309 33.9851 39.8309 32.4633 41.7015 32.4633C43.5721 32.4633 45.0939 33.9851 45.0939 35.8558C45.0939 37.7265 43.5721 39.2482 41.7015 39.2482ZM48.4343 29.2273H47.547C47.0577 29.2273 46.6597 28.8293 46.6597 28.34V27.4527H48.4342V29.2273H48.4343Z" fill="#96C12A"/>
<path d="M14.144 34.238C13.2518 34.238 12.5261 34.9638 12.5261 35.856C12.5261 36.7482 13.2518 37.474 14.144 37.474C15.0362 37.474 15.762 36.7482 15.762 35.856C15.762 34.9638 15.0362 34.238 14.144 34.238Z" fill="#96C12A"/>
<path d="M41.7015 34.238C40.8093 34.238 40.0835 34.9638 40.0835 35.856C40.0835 36.7482 40.8093 37.474 41.7015 37.474C42.5937 37.474 43.3194 36.7482 43.3194 35.856C43.3194 34.9638 42.5937 34.238 41.7015 34.238Z" fill="#96C12A"/>
<path d="M32.5156 30.8977H20.8246C20.3923 30.8977 20.0417 31.2482 20.0417 31.6806C20.0417 32.113 20.3922 32.4635 20.8246 32.4635H32.5156C32.9479 32.4635 33.2985 32.113 33.2985 31.6806C33.2985 31.2482 32.948 30.8977 32.5156 30.8977Z" fill="#96C12A"/>
<path d="M12.4739 27.5574H2.45301C2.02069 27.5574 1.6701 27.9079 1.6701 28.3403C1.6701 28.7727 2.02059 29.1232 2.45301 29.1232H12.4739C12.9062 29.1232 13.2568 28.7727 13.2568 28.3403C13.2568 27.9079 12.9062 27.5574 12.4739 27.5574Z" fill="#96C12A"/>
<path d="M27.2238 16.9307C26.9181 16.625 26.4223 16.625 26.1166 16.9307L19.1545 23.8928L15.5327 20.271C15.227 19.9652 14.7313 19.9652 14.4256 20.271C14.1198 20.5767 14.1198 21.0723 14.4256 21.3781L18.601 25.5535C18.7538 25.7064 18.9542 25.7828 19.1545 25.7828C19.3548 25.7828 19.5553 25.7064 19.708 25.5535L27.2237 18.0379C27.5294 17.732 27.5294 17.2364 27.2238 16.9307Z" fill="#96C12A"/>
</svg>
