<svg width="53" height="53" viewBox="0 0 53 53" fill="none" xmlns="http://www.w3.org/2000/svg">
<g clip-path="url(#clip0_30_109)">
<path d="M37.3025 21.6249C36.9852 21.3076 36.4693 21.3076 36.152 21.6249L25.3377 32.4393L19.4033 26.5065C19.086 26.1892 18.5702 26.1892 18.2529 26.5065C17.9356 26.8238 17.9356 27.3397 18.2529 27.657L24.7616 34.1657C24.9211 34.3235 25.1294 34.4033 25.3377 34.4033C25.546 34.4033 25.7542 34.3236 25.9121 34.1657L37.3024 22.7754C37.6198 22.458 37.6198 21.9422 37.3025 21.6249Z" fill="#96C12A"/>
<path d="M43.4695 13.2839L27.1976 8.40232C27.0447 8.35678 26.8836 8.35678 26.7306 8.40232L10.4587 13.2839C10.1153 13.3864 9.87939 13.7037 9.87939 14.0633V31.9625C9.87939 39.1579 20.8499 45.5577 26.7241 47.385C26.8022 47.4094 26.8836 47.4208 26.9649 47.4208C27.0462 47.4208 27.1276 47.4094 27.2057 47.385C33.0799 45.556 44.0504 39.1579 44.0504 31.9624V14.0633C44.0504 13.7037 43.8145 13.388 43.4695 13.2839ZM42.4233 31.9624C42.4233 37.6755 33.3712 43.6831 26.9649 45.7545C20.5587 43.6831 11.5066 37.6755 11.5066 31.9624V14.6687L26.9649 10.0312L42.4233 14.6687V31.9624Z" fill="#96C12A"/>
</g>
<defs>
<clipPath id="clip0_30_109">
<rect width="39.0526" height="39.0526" fill="white" transform="translate(7.4386 8.36816)"/>
</clipPath>
</defs>
</svg>
