<svg width="44" height="40" viewBox="0 0 44 40" fill="none" xmlns="http://www.w3.org/2000/svg">
<path d="M21.2908 13.484C21.2908 13.6723 21.3655 13.8528 21.4986 13.9859C21.6317 14.119 21.8122 14.1937 22.0005 14.1937C22.1887 14.1937 22.3692 14.119 22.5023 13.9859C22.6354 13.8528 22.7101 13.6723 22.7101 13.484V12.0647C22.7101 11.8764 22.6354 11.6959 22.5023 11.5628C22.3692 11.4298 22.1887 11.355 22.0005 11.355C21.8122 11.355 21.6317 11.4298 21.4986 11.5628C21.3655 11.6959 21.2908 11.8764 21.2908 12.0647V13.484Z" fill="#96C12A"/>
<path d="M22.0005 14.9033C21.8122 14.9033 21.6317 14.9781 21.4986 15.1112C21.3655 15.2443 21.2908 15.4248 21.2908 15.613V17.0324C21.2908 17.2206 21.3655 17.4011 21.4986 17.5342C21.6317 17.6673 21.8122 17.7421 22.0005 17.7421C22.1887 17.7421 22.3692 17.6673 22.5023 17.5342C22.6354 17.4011 22.7101 17.2206 22.7101 17.0324V15.613C22.7101 15.4248 22.6354 15.2443 22.5023 15.1112C22.3692 14.9781 22.1887 14.9033 22.0005 14.9033Z" fill="#96C12A"/>
<path d="M29.428 27.1053L28.1525 26.4826C28.0688 26.4417 27.9778 26.4177 27.8847 26.412C27.7917 26.4063 27.6985 26.4189 27.6103 26.4492C27.4323 26.5104 27.2859 26.6399 27.2034 26.809C27.1208 26.9782 27.1088 27.1732 27.17 27.3512C27.2312 27.5292 27.3606 27.6756 27.5298 27.7582L28.8053 28.3809C28.9744 28.4635 29.1694 28.4755 29.3474 28.4143C29.5254 28.3531 29.6718 28.2237 29.7544 28.0545C29.837 27.8854 29.849 27.6903 29.7878 27.5123C29.7266 27.3343 29.5972 27.1879 29.428 27.1053Z" fill="#96C12A"/>
<path d="M32.6166 28.6627L31.3411 28.04C31.2573 27.9991 31.1663 27.9751 31.0733 27.9694C30.9803 27.9636 30.887 27.9763 30.7989 28.0066C30.6209 28.0678 30.4745 28.1972 30.3919 28.3664C30.3093 28.5355 30.2973 28.7306 30.3585 28.9086C30.4197 29.0866 30.5492 29.233 30.7183 29.3156L31.9938 29.9383C32.163 30.0209 32.358 30.0329 32.536 29.9717C32.714 29.9105 32.8604 29.7811 32.943 29.6119C33.0256 29.4427 33.0376 29.2477 32.9763 29.0697C32.9151 28.8917 32.7857 28.7453 32.6166 28.6627Z" fill="#96C12A"/>
<path d="M43.6087 34.1404L36.9039 30.7845V12.7744C36.9039 12.6426 36.8672 12.5134 36.7979 12.4012C36.7287 12.289 36.6296 12.1983 36.5118 12.1392L22.7101 5.23927V0.709688C22.7101 0.521467 22.6353 0.340955 22.5022 0.207863C22.3691 0.0747707 22.1886 0 22.0004 0C21.8122 0 21.6317 0.0747707 21.4986 0.207863C21.3655 0.340955 21.2907 0.521467 21.2907 0.709688V5.23927L7.48905 12.1392C7.37122 12.1983 7.27214 12.289 7.20289 12.4012C7.13365 12.5134 7.09697 12.6426 7.09695 12.7744V30.8173L0.394827 34.1387C0.311299 34.18 0.236734 34.2374 0.175391 34.3076C0.114047 34.3778 0.0671255 34.4594 0.0373055 34.5477C0.00748543 34.636 -0.00464926 34.7293 0.00159419 34.8223C0.00783764 34.9153 0.032337 35.0061 0.0736934 35.0897C0.11505 35.1732 0.172454 35.2478 0.242627 35.3091C0.3128 35.3704 0.394369 35.4174 0.482676 35.4472C0.570983 35.477 0.664298 35.4891 0.757295 35.4829C0.850291 35.4767 0.941148 35.4522 1.02468 35.4108L7.8368 32.0345L21.6828 38.9583C21.7815 39.0074 21.8902 39.0329 22.0004 39.0329C22.1106 39.0329 22.2193 39.0074 22.318 38.9583L36.1977 32.0185L42.9735 35.409C43.0717 35.4587 43.1802 35.4845 43.2902 35.4844C43.45 35.4845 43.6051 35.4306 43.7304 35.3315C43.8558 35.2324 43.944 35.0939 43.9809 34.9384C44.0177 34.7829 44.001 34.6195 43.9335 34.4747C43.8659 34.3299 43.7515 34.2121 43.6087 34.1404ZM21.2907 37.1753L9.43005 31.2449L10.1868 30.8697C10.2721 30.8294 10.3486 30.7725 10.4117 30.7023C10.4747 30.6321 10.5232 30.5501 10.5542 30.461C10.5852 30.3718 10.5981 30.2774 10.5922 30.1832C10.5862 30.089 10.5616 29.997 10.5196 29.9124C10.4777 29.8279 10.4193 29.7526 10.3479 29.6909C10.2765 29.6292 10.1935 29.5823 10.1038 29.5531C10.014 29.5238 9.91937 29.5128 9.82532 29.5206C9.73127 29.5284 9.63972 29.5548 9.55602 29.5984L8.51633 30.1139V13.9223L21.2907 20.3095V37.1753ZM22.0004 19.0782L9.39368 12.7744L21.2907 6.82543V9.93564C21.2907 10.1239 21.3655 10.3044 21.4986 10.4375C21.6317 10.5706 21.8122 10.6453 22.0004 10.6453C22.1886 10.6453 22.3691 10.5706 22.5022 10.4375C22.6353 10.3044 22.7101 10.1239 22.7101 9.93564V6.82543L34.6071 12.7744L22.0004 19.0782ZM35.4845 30.0739L34.5362 29.5993C34.3678 29.5151 34.1729 29.5012 33.9943 29.5607C33.8157 29.6201 33.6681 29.7481 33.5839 29.9165C33.4996 30.0848 33.4857 30.2797 33.5452 30.4583C33.6047 30.6369 33.7327 30.7846 33.901 30.8688L34.6116 31.2245L22.7101 37.1753V20.3095L35.4845 13.9223V30.0739Z" fill="#96C12A"/>
<path d="M18.1622 26.896C18.2698 26.8959 18.376 26.8712 18.4727 26.8238L19.7481 26.2012C19.8329 26.161 19.909 26.1043 19.9718 26.0345C20.0346 25.9647 20.0829 25.8831 20.114 25.7945C20.145 25.7059 20.1582 25.612 20.1527 25.5183C20.1472 25.4245 20.1232 25.3328 20.082 25.2484C20.0408 25.1641 19.9833 25.0887 19.9127 25.0267C19.8422 24.9647 19.7601 24.9173 19.6711 24.8873C19.5821 24.8573 19.4881 24.8453 19.3944 24.8519C19.3007 24.8584 19.2093 24.8836 19.1254 24.9258L17.8504 25.5489C17.706 25.6192 17.5898 25.7364 17.5207 25.8814C17.4517 26.0263 17.4337 26.1903 17.4699 26.3468C17.5061 26.5032 17.5943 26.6427 17.72 26.7426C17.8458 26.8424 18.0016 26.8967 18.1622 26.8965V26.896Z" fill="#96C12A"/>
<path d="M14.9735 28.4529C15.0812 28.4529 15.1874 28.4282 15.284 28.3809L16.5595 27.7582C16.7287 27.6756 16.8581 27.5292 16.9193 27.3512C16.9805 27.1732 16.9685 26.9782 16.8859 26.809C16.8033 26.6399 16.6569 26.5104 16.4789 26.4492C16.3009 26.388 16.1059 26.4 15.9368 26.4826L14.6613 27.1053C14.5169 27.1757 14.4007 27.2929 14.3317 27.4379C14.2626 27.5828 14.2446 27.7469 14.2809 27.9033C14.3171 28.0597 14.4052 28.1992 14.531 28.2991C14.6567 28.3989 14.8126 28.4532 14.9732 28.4529H14.9735Z" fill="#96C12A"/>
<path d="M11.7849 30.0099C11.8925 30.0097 11.9987 29.9851 12.0954 29.9378L13.3709 29.3151C13.54 29.2325 13.6694 29.0861 13.7306 28.9081C13.7919 28.7301 13.7799 28.535 13.6973 28.3659C13.6147 28.1967 13.4683 28.0673 13.2903 28.0061C13.1123 27.9449 12.9173 27.9569 12.7481 28.0395L11.4726 28.6622C11.3283 28.7326 11.2121 28.8498 11.143 28.9947C11.0739 29.1397 11.056 29.3038 11.0922 29.4602C11.1284 29.6166 11.2166 29.7561 11.3423 29.856C11.4681 29.9558 11.624 30.0101 11.7845 30.0099H11.7849Z" fill="#96C12A"/>
</svg>
