<svg width="57" height="57" viewBox="0 0 57 57" fill="none" xmlns="http://www.w3.org/2000/svg">
<g clip-path="url(#clip0_30_54)">
<path d="M42.7845 29.8413C42.4067 29.8413 42.1005 30.1475 42.1005 30.5253C42.1005 31.0042 41.7109 31.3938 41.232 31.3938C40.7532 31.3938 40.3635 31.0042 40.3635 30.5253C40.3635 30.1475 40.0573 29.8413 39.6795 29.8413C39.3018 29.8413 38.9955 30.1475 38.9955 30.5253C38.9955 31.7585 39.9989 32.7617 41.232 32.7617C42.4651 32.7617 43.4684 31.7584 43.4684 30.5253C43.4684 30.1474 43.1622 29.8413 42.7845 29.8413Z" fill="#96C12A"/>
<path d="M49.2048 29.9533L47.2797 29.3366C47.0331 29.2576 46.8388 29.0608 46.7599 28.8101C46.3542 27.5201 45.7419 26.309 44.94 25.2104C44.5746 24.7096 44.1682 24.2314 43.7243 23.7762C44.0083 22.5303 44.1627 21.1202 44.1427 19.9019C44.114 18.1592 43.7658 17.137 43.078 16.7768C42.7076 16.5826 41.5804 15.9925 35.4789 18.7855C35.3344 18.8516 35.1995 18.933 35.0745 19.0263C34.6632 18.9158 34.2428 18.8135 33.8198 18.7217C33.7688 18.7106 33.7163 18.7008 33.665 18.6899C34.1594 17.6099 34.4481 16.4368 34.5024 15.2258C34.5192 14.8483 34.2271 14.5287 33.8496 14.5119C33.4731 14.4932 33.1525 14.7871 33.1357 15.1646C33.0466 17.1557 32.2206 19.0292 30.81 20.4399C29.9672 21.2827 28.9804 21.8948 27.9287 22.2804C26.1048 22.0245 24.247 22.0245 22.4231 22.2804C21.3713 21.8948 20.3845 21.2827 19.5418 20.4399C18.0368 18.9349 17.208 16.9341 17.208 14.8057C17.208 12.6773 18.0368 10.6765 19.5418 9.17162C21.0467 7.66661 23.0477 6.83778 25.1759 6.83778C27.3041 6.83778 29.3051 7.66661 30.81 9.17162C31.4148 9.77638 31.9145 10.4665 32.2954 11.2226C32.4653 11.5601 32.8766 11.6959 33.214 11.5259C33.5514 11.3561 33.6872 10.9448 33.5173 10.6074C33.0709 9.72075 32.4855 8.91229 31.7775 8.20417C30.0141 6.44085 27.6696 5.46973 25.176 5.46973C22.6823 5.46973 20.3378 6.44085 18.5745 8.20417C16.8112 9.96759 15.8401 12.312 15.8401 14.8057C15.8401 17.2993 16.8112 19.6438 18.5745 21.4071C19.0831 21.9158 19.6365 22.3532 20.2218 22.7196C20.222 22.7196 20.2222 22.7195 20.2223 22.7195C19.797 22.8301 19.375 22.9542 18.9576 23.0937C18.5993 23.2135 18.406 23.601 18.5258 23.9594C18.6455 24.3176 19.0331 24.511 19.3913 24.3913C23.1216 23.1442 27.2304 23.1442 30.9607 24.3913C31.0326 24.4153 31.1057 24.4267 31.1776 24.4267C31.4637 24.4267 31.7305 24.2457 31.8262 23.9594C31.946 23.6011 31.7527 23.2135 31.3944 23.0937C30.977 22.9542 30.5549 22.83 30.1296 22.7195C30.1298 22.7195 30.13 22.7196 30.1302 22.7196C30.7156 22.3532 31.2688 21.9158 31.7775 21.4071C32.2274 20.9571 32.6247 20.4658 32.9695 19.9435C33.1581 19.9801 33.3453 20.0185 33.5297 20.0585C33.7753 20.1119 34.0199 20.1692 34.2622 20.2293C34.2546 20.259 34.2468 20.2887 34.2405 20.3189C33.9069 21.9019 33.9285 23.302 34.3048 24.48C34.643 25.5389 35.2533 26.3967 36.1187 27.0299C37.1387 27.776 38.37 28.0983 39.4855 28.0983C40.3249 28.0983 41.0989 27.9156 41.6673 27.5937C42.3102 27.2295 42.8489 26.4622 43.2753 25.3101C43.4724 25.5402 43.6592 25.7758 43.8353 26.0171C44.5492 26.9951 45.0942 28.073 45.4551 29.2206C45.6671 29.8947 46.1932 30.4251 46.8625 30.6396L48.7877 31.2563C49.2929 31.4181 49.6322 31.8831 49.6322 32.4135V35.6057C49.6322 36.1361 49.2929 36.6011 48.7877 36.7629L45.686 37.7564C45.1897 37.9155 44.7697 38.2565 44.5034 38.7168C43.2848 40.8228 41.3689 42.5656 38.8086 43.8967C38.5129 44.0507 38.308 44.326 38.2463 44.6522L37.2529 49.9124C37.2254 50.0574 37.0985 50.1625 36.9509 50.1625H33.7209C33.5734 50.1625 33.4464 50.0573 33.419 49.9124L32.8687 47.0053C32.7604 46.4333 32.224 46.0534 31.6466 46.1409C30.2552 46.3513 28.8215 46.4579 27.3855 46.4579C26.3172 46.4579 25.2625 46.3983 24.2507 46.2807C23.6912 46.2163 23.1699 46.5977 23.0654 47.1502L22.5425 49.9124C22.5151 50.0574 22.3881 50.1625 22.2406 50.1625H19.0105C18.863 50.1625 18.7361 50.0573 18.7082 49.9102L17.7517 44.942C17.6901 44.6219 17.4891 44.3497 17.1998 44.1952C12.8355 41.8653 10.5286 37.9728 10.5286 32.9387C10.5286 30.3951 11.0851 28.146 12.1825 26.2535C13.2066 24.4875 14.7023 23.0273 16.6281 21.9133C16.9551 21.7241 17.0668 21.3057 16.8777 20.9786C16.6886 20.6516 16.2702 20.5401 15.9431 20.729C12.2089 22.8892 9.9567 26.2218 9.33661 30.4545V30.4544C9.27079 30.4485 9.20488 30.4428 9.13925 30.436C9.15118 29.9793 9.06856 29.5185 8.88864 29.0713C8.4918 28.0848 7.67665 27.3728 6.81183 27.2574C6.13033 27.1662 5.48179 27.4555 5.03171 28.0502C4.37912 28.9125 4.48551 29.595 4.68958 30.0156C5.03409 30.7254 5.91966 31.2276 7.38923 31.5432C7.34884 31.6037 7.30441 31.6645 7.25576 31.7256C6.38745 32.8145 5.36447 33.0553 4.70023 33.078C4.31137 33.0911 4 33.4033 4 33.7925V33.7958C4 34.1796 4.30284 34.4926 4.68627 34.5101C4.73538 34.5124 4.7867 34.5136 4.84013 34.5136C5.68062 34.5136 7.02957 34.2036 8.32556 32.5785C8.53018 32.3221 8.69688 32.0514 8.82503 31.7718C8.95409 31.7864 9.07811 31.7989 9.1969 31.8099C9.1969 31.8096 9.1969 31.8095 9.19699 31.8092C9.17367 32.1799 9.16073 32.556 9.16073 32.9387C9.16073 35.7869 9.83975 38.3265 11.1788 40.4871C12.4135 42.4791 14.1812 44.1101 16.4346 45.3367L17.3645 50.1667C17.5141 50.9569 18.2063 51.5305 19.0105 51.5305H22.2406C23.0448 51.5305 23.7371 50.9569 23.8866 50.1667L24.3594 47.6691C25.3412 47.7731 26.3578 47.8258 27.3854 47.8258C28.7954 47.8258 30.2038 47.7276 31.5763 47.5337L32.0747 50.1669C32.2243 50.9571 32.9166 51.5305 33.7207 51.5305H36.9508C37.755 51.5305 38.4472 50.957 38.5969 50.1665L39.5641 45.0451C42.2967 43.6001 44.3565 41.702 45.6873 39.4019C45.7833 39.2361 45.931 39.1145 46.1032 39.0593L49.2048 38.0658C50.2786 37.7216 51 36.7331 51 35.6055V32.4133C51 31.2858 50.2786 30.2973 49.2048 29.9533ZM42.672 21.8241C42.4087 24.0755 41.7025 26.0014 40.9929 26.4033C40.1864 26.8601 38.3243 26.9484 36.9263 25.9256C35.5265 24.9017 35.0607 23.0605 35.5789 20.6009C35.5789 20.6008 35.5789 20.6008 35.5789 20.6008C35.6309 20.3538 35.8064 20.1401 36.0483 20.0294C39.4727 18.4618 41.447 17.9491 42.1804 17.9491C42.2911 17.9491 42.3736 17.9608 42.4285 17.9823C42.6488 18.2171 42.9378 19.5519 42.672 21.8241ZM5.92048 29.4182C5.84971 29.2723 6.01678 29.0157 6.12271 28.8756C6.29061 28.6538 6.44529 28.6085 6.56214 28.6085C6.58684 28.6085 6.60988 28.6105 6.63099 28.6134C6.94549 28.6553 7.38611 29.0014 7.61955 29.5816C7.67454 29.7182 7.74595 29.9445 7.76266 30.2267C6.81578 30.0305 6.08012 29.7477 5.92048 29.4182Z" fill="#96C12A"/>
<path d="M25.8401 14.0214V11.5737C26.6842 11.634 26.9978 12.0198 27.2871 12.0198C27.6489 12.0198 27.8177 11.5617 27.8177 11.3326C27.8177 10.7417 26.6601 10.4885 25.8401 10.4643V10.1386C25.8401 9.99397 25.6592 9.86133 25.4784 9.86133C25.2733 9.86133 25.1286 9.99397 25.1286 10.1386V10.4883C23.9831 10.6089 22.8376 11.2118 22.8376 12.7312C22.8376 14.2746 24.0434 14.7088 25.1286 15.0946V17.9283C23.8986 17.8318 23.5731 16.9877 23.1752 16.9877C22.8737 16.9877 22.6205 17.3856 22.6205 17.6751C22.6205 18.2659 23.6334 19.0738 25.1286 19.0979V19.4717C25.1286 19.6164 25.2734 19.749 25.4784 19.749C25.6593 19.749 25.8401 19.6164 25.8401 19.4717V19.0618C27.1425 18.8808 28.0347 18.0609 28.0347 16.5777C28.0347 14.9379 26.8892 14.4072 25.8401 14.0214ZM25.201 13.7923C24.5619 13.5512 24.0434 13.298 24.0434 12.6107C24.0434 11.9837 24.5257 11.6822 25.201 11.5978V13.7923ZM25.7677 17.9041V15.3599C26.3585 15.613 26.8288 15.9507 26.8288 16.7103C26.8288 17.3978 26.4188 17.7836 25.7677 17.9041Z" fill="#96C12A"/>
</g>
<defs>
<clipPath id="clip0_30_54">
<rect width="47" height="47" fill="white" transform="translate(4 5)"/>
</clipPath>
</defs>
</svg>
