<svg width="42" height="42" viewBox="0 0 42 42" fill="none" xmlns="http://www.w3.org/2000/svg">
<g clip-path="url(#clip0_30_45)">
<path d="M40.25 11.62C39.8895 11.62 39.5535 11.3977 39.4258 11.0373C37.45 5.48275 32.1545 1.75 26.25 1.75C22.512 1.75 18.9963 3.20775 16.352 5.852C16.0895 6.1145 15.827 6.391 15.582 6.68675C15.2723 7.0595 14.7193 7.10675 14.3483 6.797C13.9773 6.48725 13.9283 5.936 14.238 5.565C14.518 5.229 14.8173 4.9105 15.1165 4.61475C18.0898 1.63975 22.0448 0 26.25 0C32.8948 0 38.8518 4.2 41.0743 10.4528C41.237 10.9078 40.999 11.4082 40.544 11.571C40.446 11.6042 40.348 11.62 40.25 11.62Z" fill="#96C12A"/>
<path d="M35.875 42H20.125C19.642 42 19.25 41.608 19.25 41.125V35.3062L15.0255 36.5908C14.7403 36.6923 14.3833 36.75 14 36.75C12.0697 36.75 10.5 35.1803 10.5 33.25V28H7C6.01825 28 5.25 27.2317 5.25 26.25C5.25 25.921 5.34275 25.606 5.52125 25.3155L7.99225 21.4077C8.25125 20.9982 8.79375 20.8775 9.19975 21.1365C9.6075 21.3938 9.73 21.9345 9.471 22.3423L7.0035 26.2447L11.375 26.25C11.858 26.25 12.25 26.642 12.25 27.125V33.25C12.25 34.2143 13.034 35 14 35C14.182 35 14.343 34.9755 14.4777 34.9282L19.8695 33.2868C20.1355 33.2097 20.4242 33.257 20.6447 33.4215C20.8687 33.586 21 33.8485 21 34.125V40.25H35V32.3225C35 29.2705 35.931 26.32 37.695 23.7895C39.368 21.4322 40.25 18.655 40.25 15.75C40.25 15.267 40.642 14.875 41.125 14.875C41.608 14.875 42 15.267 42 15.75C42 19.019 41.0078 22.148 39.1265 24.7957C37.5742 27.0252 36.75 29.631 36.75 32.3225V41.125C36.75 41.608 36.358 42 35.875 42Z" fill="#96C12A"/>
<path d="M18.375 22.75H4.375C1.96175 22.75 0 20.7865 0 18.375V9.625C0 7.2135 1.96175 5.25 4.375 5.25H18.375C19.8223 5.25 21 6.42775 21 7.875V10.5C21 10.983 20.608 11.375 20.125 11.375C19.642 11.375 19.25 10.983 19.25 10.5V7.875C19.25 7.392 18.8563 7 18.375 7H4.375C2.92775 7 1.75 8.17775 1.75 9.625V18.375C1.75 19.8223 2.92775 21 4.375 21H18.375C18.8563 21 19.25 20.608 19.25 20.125V17.5C19.25 17.017 19.642 16.625 20.125 16.625C20.608 16.625 21 17.017 21 17.5V20.125C21 21.5723 19.8223 22.75 18.375 22.75Z" fill="#96C12A"/>
<path d="M39.375 18.375H14.875C13.4278 18.375 12.25 17.1973 12.25 15.75V12.25C12.25 10.8028 13.4278 9.625 14.875 9.625H39.375C40.8223 9.625 42 10.8028 42 12.25V15.75C42 17.1973 40.8223 18.375 39.375 18.375ZM14.875 11.375C14.3938 11.375 14 11.767 14 12.25V15.75C14 16.233 14.3938 16.625 14.875 16.625H39.375C39.8563 16.625 40.25 16.233 40.25 15.75V12.25C40.25 11.767 39.8563 11.375 39.375 11.375H14.875Z" fill="#96C12A"/>
<path d="M6.125 22.75C5.642 22.75 5.25 22.358 5.25 21.875V6.125C5.25 5.642 5.642 5.25 6.125 5.25C6.608 5.25 7 5.642 7 6.125V21.875C7 22.358 6.608 22.75 6.125 22.75Z" fill="#96C12A"/>
</g>
<defs>
<clipPath id="clip0_30_45">
<rect width="42" height="42" fill="white"/>
</clipPath>
</defs>
</svg>
