<svg width="40" height="40" viewBox="0 0 40 40" fill="none" xmlns="http://www.w3.org/2000/svg">
<g clip-path="url(#clip0_30_157)">
<path d="M39.3687 6.63085L38.1687 0.580178C38.0969 0.219012 37.7461 -0.0155718 37.3849 0.0560949C37.3848 0.0560949 37.3847 0.0560949 37.3847 0.0561782L4.35399 6.62351H3.33333C2.96516 6.62351 2.66666 6.92201 2.66666 7.29018V10.6902C1.11274 11.0042 -0.0034241 12.3715 -7.43631e-06 13.9568V36.6235C0.00215923 38.4635 1.49333 39.9547 3.33333 39.9568H39.3333C39.7015 39.9568 40 39.6583 40 39.2902V7.29018C39.9967 6.93818 39.7202 6.64943 39.3687 6.63085ZM36.9893 1.49418L38.008 6.62351H11.1913L36.9893 1.49418ZM1.91133 12.5422L1.91466 12.5448C2.12749 12.3337 2.38424 12.1721 2.66666 12.0715V15.8348C2.65199 15.8302 2.63733 15.8268 2.62266 15.8215C2.53658 15.7873 2.45308 15.7469 2.37266 15.7008C2.33266 15.6788 2.28999 15.6615 2.25133 15.6342C2.13149 15.5588 2.01983 15.4712 1.91799 15.3728C1.13658 14.5921 1.13358 13.3265 1.91133 12.5422ZM38.6667 30.6235H29.3333V25.2902H38.6667V30.6235ZM38.6667 23.9568H28.6667C28.2985 23.9568 28 24.2553 28 24.6235V31.2902C28 31.6583 28.2985 31.9568 28.6667 31.9568H38.6667V38.6235H3.33333C2.22874 38.6235 1.33333 37.7281 1.33333 36.6235V16.6235C1.36333 16.6462 1.39666 16.6615 1.42733 16.6828C1.48599 16.7242 1.54666 16.7595 1.60733 16.7968C1.71958 16.8654 1.83583 16.9273 1.95533 16.9822C2.02199 17.0122 2.08866 17.0415 2.15533 17.0668C2.28358 17.1148 2.41474 17.1543 2.54799 17.1855C2.60999 17.2008 2.66999 17.2202 2.73266 17.2315C2.93066 17.2692 3.13174 17.2888 3.33333 17.2902H38.6667V23.9568ZM16.714 15.9568C17.0802 13.4057 19.4451 11.6343 21.9963 12.0005C24.0472 12.2948 25.6583 13.9061 25.9527 15.9568H16.714ZM38.6667 15.9568H27.294C26.9152 12.6648 23.9394 10.3033 20.6474 10.6821C17.877 11.0009 15.6914 13.1864 15.3727 15.9568H3.99999V7.95685H38.6667V15.9568Z" fill="#96C12A"/>
<path d="M36.6667 9.29028H32.6667V10.6236H36V13.957H37.3333V9.95695C37.3333 9.5887 37.0348 9.29028 36.6667 9.29028Z" fill="#96C12A"/>
<path d="M5.99999 9.29028C5.63183 9.29028 5.33333 9.58878 5.33333 9.95695V13.957H6.66666V10.6236H9.99999V9.29028H5.99999Z" fill="#96C12A"/>
<path d="M32 27.2903H30.6667V28.6236H32V27.2903Z" fill="#96C12A"/>
</g>
<defs>
<clipPath id="clip0_30_157">
<rect width="40" height="40" fill="white"/>
</clipPath>
</defs>
</svg>
