<svg width="17" height="18" viewBox="0 0 17 18" fill="none" xmlns="http://www.w3.org/2000/svg">
<g clip-path="url(#clip0_153_154)">
<path d="M8.5 18C8.45183 18 8.40367 17.9895 8.35904 17.9685L0.213208 14.2185C0.0835833 14.1593 0 14.0243 0 13.875V4.125C0 3.918 0.158667 3.75 0.354167 3.75C0.549667 3.75 0.708333 3.918 0.708333 4.125V13.629L8.5 17.2155L16.2917 13.629V4.125C16.2917 3.918 16.4503 3.75 16.6458 3.75C16.8413 3.75 17 3.918 17 4.125V13.875C17 14.0243 16.9164 14.1593 16.7868 14.2185L8.64096 17.9685C8.59633 17.9895 8.54817 18 8.5 18Z" fill="#96C12A"/>
<path d="M8.5 8.25C8.45183 8.25 8.40367 8.2395 8.35904 8.2185L0.213208 4.4685C0.0835833 4.40925 0 4.27425 0 4.125C0 3.97575 0.0835833 3.84075 0.213208 3.7815L8.35904 0.0315C8.449 -0.0105 8.551 -0.0105 8.64096 0.0315L16.7868 3.7815C16.9164 3.84075 17 3.97575 17 4.125C17 4.27425 16.9164 4.40925 16.7868 4.4685L8.64096 8.2185C8.59633 8.2395 8.54817 8.25 8.5 8.25ZM1.24242 4.125L8.5 7.46625L15.7576 4.125L8.5 0.78375L1.24242 4.125Z" fill="#96C12A"/>
<path d="M16.6458 14.25C16.5991 14.25 16.5502 14.2402 16.5049 14.2185L15.8553 13.9192C15.6754 13.8367 15.5939 13.6155 15.6719 13.4257C15.7484 13.236 15.9594 13.1497 16.1372 13.2315L16.7868 13.5307C16.9667 13.6132 17.0482 13.8345 16.9702 14.0242C16.9129 14.166 16.7818 14.25 16.6458 14.25Z" fill="#96C12A"/>
<path d="M14.4167 13.2232C14.37 13.2232 14.3211 13.2135 14.2758 13.1917L13.2225 12.7072C13.0433 12.6247 12.9611 12.4035 13.0383 12.2137C13.1162 12.024 13.3266 11.9362 13.5044 12.0195L14.5577 12.504C14.7369 12.5865 14.819 12.8077 14.7418 12.9975C14.683 13.1392 14.5527 13.2232 14.4167 13.2232ZM11.7831 12.0112C11.7364 12.0112 11.6875 12.0015 11.6422 11.9797L10.5889 11.4952C10.4097 11.4127 10.3275 11.1915 10.4047 11.0017C10.4826 10.812 10.693 10.7242 10.8708 10.8075L11.9241 11.292C12.1033 11.3745 12.1855 11.5957 12.1083 11.7855C12.0502 11.9272 11.9191 12.0112 11.7831 12.0112Z" fill="#96C12A"/>
<path d="M9.14955 10.7993C9.1028 10.7993 9.05392 10.7895 9.00859 10.7678L8.50001 10.5338L7.99142 10.7678C7.81363 10.8503 7.60255 10.7633 7.52605 10.5735C7.44813 10.3838 7.52959 10.1625 7.70951 10.08L8.35905 9.78077C8.44901 9.73877 8.55101 9.73877 8.64096 9.78077L9.2905 10.08C9.47042 10.1625 9.55188 10.3838 9.47396 10.5735C9.41659 10.7153 9.28555 10.7993 9.14955 10.7993Z" fill="#96C12A"/>
<path d="M2.58329 13.2233C2.44729 13.2233 2.31625 13.1393 2.25816 12.9975C2.18096 12.8078 2.26312 12.5865 2.44233 12.504L3.49562 12.0195C3.67412 11.9363 3.88379 12.024 3.96171 12.2138C4.03891 12.4035 3.95675 12.6248 3.77754 12.7073L2.72496 13.1925C2.67891 13.2135 2.63075 13.2233 2.58329 13.2233ZM5.21687 12.0113C5.08087 12.0113 4.94983 11.9273 4.89175 11.7855C4.81454 11.5958 4.89671 11.3745 5.07591 11.292L6.12921 10.8075C6.30771 10.725 6.51737 10.812 6.59529 11.0018C6.6725 11.1915 6.59033 11.4128 6.41112 11.4953L5.35783 11.9798C5.3125 12.0015 5.26433 12.0113 5.21687 12.0113Z" fill="#96C12A"/>
<path d="M0.354158 14.25C0.218158 14.25 0.0871167 14.166 0.0297417 14.0242C-0.0481749 13.8345 0.0332834 13.614 0.2132 13.5307L0.862742 13.2315C1.04053 13.1497 1.25091 13.236 1.32812 13.4257C1.40603 13.6155 1.32458 13.8367 1.14466 13.9192L0.495117 14.2185C0.449783 14.2402 0.400908 14.25 0.354158 14.25Z" fill="#96C12A"/>
<path d="M8.50001 18C8.30451 18 8.14584 17.832 8.14584 17.625V7.875C8.14584 7.668 8.30451 7.5 8.50001 7.5C8.69551 7.5 8.85418 7.668 8.85418 7.875V17.625C8.85418 17.832 8.69551 18 8.50001 18Z" fill="#96C12A"/>
<path d="M8.50001 7.125C8.30451 7.125 8.14584 6.957 8.14584 6.75V5.625C8.14584 5.418 8.30451 5.25 8.50001 5.25C8.69551 5.25 8.85418 5.418 8.85418 5.625V6.75C8.85418 6.957 8.69551 7.125 8.50001 7.125ZM8.50001 4.5C8.30451 4.5 8.14584 4.332 8.14584 4.125V3C8.14584 2.793 8.30451 2.625 8.50001 2.625C8.69551 2.625 8.85418 2.793 8.85418 3V4.125C8.85418 4.332 8.69551 4.5 8.50001 4.5ZM8.50001 1.875C8.30451 1.875 8.14584 1.707 8.14584 1.5V0.375C8.14584 0.168 8.30451 0 8.50001 0C8.69551 0 8.85418 0.168 8.85418 0.375V1.5C8.85418 1.707 8.69551 1.875 8.50001 1.875Z" fill="#96C12A"/>
</g>
<defs>
<clipPath id="clip0_153_154">
<rect width="17" height="18" fill="white"/>
</clipPath>
</defs>
</svg>
