<svg width="22" height="16" viewBox="0 0 22 16" fill="none" xmlns="http://www.w3.org/2000/svg">
<path d="M0.458387 7.54151H20.4352L14.3426 1.44889C14.1636 1.26984 14.1636 0.9798 14.3426 0.800792C14.5217 0.621741 14.8117 0.621741 14.9907 0.800792L21.8657 7.67579C22.0448 7.85484 22.0448 8.14488 21.8657 8.32389L14.9907 15.1989C14.9012 15.2884 14.7839 15.3332 14.6666 15.3332C14.5494 15.3332 14.4321 15.2884 14.3426 15.1989C14.1635 15.0198 14.1635 14.7298 14.3426 14.5508L20.4352 8.45821H0.458344C0.205 8.45821 -1.90735e-06 8.2532 -1.90735e-06 7.99986C-1.90735e-06 7.74652 0.205044 7.54151 0.458387 7.54151Z" fill="#96C12A"/>
</svg>
