<svg width="16" height="16" viewBox="0 0 16 16" fill="none" xmlns="http://www.w3.org/2000/svg">
<path d="M15.6039 3.2549C15.8196 3.2549 15.9961 3.07843 16 2.86275V0.396078C16 0.176471 15.8235 0 15.6039 0H13.1373C12.9216 0 12.7451 0.176471 12.7451 0.396078V1.2549H3.2549V0.396078C3.2549 0.180392 3.07843 0.00392157 2.86275 0H0.396078C0.180392 0 0.00392157 0.176471 0 0.396078V2.86275C0 3.07843 0.176471 3.2549 0.396078 3.2549H1.2549V12.7451H0.396078C0.180392 12.7451 0.00392157 12.9216 0 13.1373V15.6039C0 15.8196 0.176471 15.9961 0.396078 16H2.86275C3.07843 16 3.2549 15.8235 3.2549 15.6039V14.7451H12.7451V15.6039C12.7451 15.8196 12.9216 15.9961 13.1373 16H15.6039C15.8196 16 15.9961 15.8235 16 15.6039V13.1373C16 12.9216 15.8235 12.7451 15.6039 12.7451H14.7451V3.2549H15.6039ZM0.784314 2.47059V0.784314H2.47059V2.47059H0.784314ZM2.47059 15.2157H0.784314V13.5294H2.47059V15.2157ZM12.7451 13.1373V13.9608H3.2549V13.1373C3.2549 12.9216 3.07843 12.7451 2.86275 12.7451H2.03922V3.2549H2.86275C3.07843 3.2549 3.2549 3.07843 3.2549 2.86275V2.03922H12.7451V2.86275C12.7451 3.07843 12.9216 3.2549 13.1373 3.2549H13.9608V12.7451H13.1373C12.9216 12.7451 12.7451 12.9216 12.7451 13.1373ZM15.2157 13.5294V15.2157H13.5294V13.5294H15.2157ZM13.5294 2.47059V0.784314H15.2157V2.47059H13.5294Z" fill="#96C12A"/>
</svg>
