<svg width="18" height="18" viewBox="0 0 18 18" fill="none" xmlns="http://www.w3.org/2000/svg">
<g clip-path="url(#clip0_153_120)">
<path d="M9 0C7.25569 0 5.56376 0.499746 4.10688 1.44517C3.94773 1.54846 3.90248 1.76115 4.00574 1.9203C4.10903 2.07946 4.32172 2.12467 4.48088 2.02145C5.82609 1.14848 7.38875 0.687023 9 0.687023C13.5838 0.687023 17.313 4.41622 17.313 9C17.313 13.5838 13.5838 17.313 9 17.313C4.41622 17.313 0.687023 13.5838 0.687023 9C0.687023 6.66257 1.67973 4.4197 3.41058 2.84657C3.55096 2.71895 3.56129 2.50172 3.43371 2.3613C3.30609 2.22089 3.08886 2.21052 2.94845 2.33817C1.07469 4.04125 0 6.46938 0 9C0 13.9627 4.03734 18 9 18C13.9627 18 18 13.9627 18 9C18 4.03734 13.9627 0 9 0Z" fill="#96C12A"/>
<path d="M15.1142 4.91756C15.0088 4.75992 14.7954 4.71749 14.6377 4.82306C14.48 4.92849 14.4377 5.14189 14.5432 5.29953C15.2765 6.39571 15.6641 7.67525 15.6641 8.99994C15.6641 12.6745 12.6746 15.6641 9 15.6641C5.3254 15.6641 2.33589 12.6745 2.33589 8.99994C2.33589 5.32534 5.3254 2.33583 9 2.33583C10.7529 2.33583 12.4082 3.0109 13.6607 4.23669C13.7964 4.36944 14.0139 4.36705 14.1465 4.23145C14.2792 4.09589 14.2768 3.87838 14.1413 3.7457C12.7595 2.39348 10.9337 1.6488 9 1.6488C4.94656 1.6488 1.64886 4.9465 1.64886 8.99994C1.64886 13.0534 4.94656 16.3511 9 16.3511C13.0534 16.3511 16.3511 13.0534 16.3511 8.99994C16.3511 7.53881 15.9234 6.12708 15.1142 4.91756Z" fill="#96C12A"/>
<path d="M8.99999 3.7558C7.86796 3.7558 6.79003 4.11081 5.88268 4.7825C5.73017 4.89539 5.69811 5.11047 5.81096 5.26295C5.92392 5.41556 6.13901 5.44759 6.29141 5.33467C7.07961 4.75121 8.01621 4.44282 8.99999 4.44282C11.5128 4.44282 13.5572 6.48723 13.5572 9.00006C13.5572 11.096 12.1392 12.9142 10.1087 13.4215C9.92467 13.4675 9.81276 13.654 9.85875 13.8381C9.89777 13.9942 10.0379 14.0984 10.1918 14.0984C10.2193 14.0984 10.2474 14.0951 10.2754 14.0881C12.6122 13.5041 14.2442 11.4118 14.2442 9.00006C14.2442 6.10831 11.8917 3.7558 8.99999 3.7558Z" fill="#96C12A"/>
<path d="M6.11718 12.5298C5.05304 11.6596 4.44276 10.373 4.44276 9C4.44276 8.04983 4.73213 7.13946 5.27966 6.36732C5.38941 6.21256 5.35289 5.99814 5.19813 5.88842C5.04341 5.77863 4.82895 5.81519 4.71923 5.96995C4.08888 6.85887 3.75574 7.90667 3.75574 9C3.75574 10.58 4.45791 12.0603 5.6823 13.0616C5.74611 13.1138 5.8231 13.1392 5.89957 13.1392C5.99906 13.1392 6.09774 13.0962 6.16566 13.0132C6.28576 12.8662 6.26403 12.6498 6.11718 12.5298Z" fill="#96C12A"/>
<path d="M11.9771 8.65655C11.7873 8.65655 11.6336 8.81029 11.6336 9.00006C11.6336 10.4523 10.4522 11.6337 9 11.6337C7.5478 11.6337 6.36641 10.4523 6.36641 9.00006C6.36641 7.54786 7.5478 6.36647 9 6.36647C9.18977 6.36647 9.34351 6.21273 9.34351 6.02296C9.34351 5.83322 9.18977 5.67944 9 5.67944C7.16899 5.67944 5.67938 7.16905 5.67938 9.00006C5.67938 10.8311 7.16899 12.3207 9 12.3207C10.831 12.3207 12.3206 10.8311 12.3206 9.00006C12.3206 8.81029 12.1668 8.65655 11.9771 8.65655Z" fill="#96C12A"/>
<path d="M9.00002 7.60303C8.22978 7.60303 7.60309 8.22972 7.60309 8.99996C7.60309 9.7702 8.22978 10.3969 9.00002 10.3969C9.77026 10.3969 10.397 9.7702 10.397 8.99996C10.397 8.22972 9.77026 7.60303 9.00002 7.60303ZM9.00002 9.70987C8.60856 9.70987 8.29011 9.39143 8.29011 8.99996C8.29011 8.6085 8.60856 8.29005 9.00002 8.29005C9.39149 8.29005 9.70993 8.6085 9.70993 8.99996C9.70993 9.39143 9.39149 9.70987 9.00002 9.70987Z" fill="#96C12A"/>
</g>
<defs>
<clipPath id="clip0_153_120">
<rect width="18" height="18" fill="white"/>
</clipPath>
</defs>
</svg>
