<svg width="17" height="17" viewBox="0 0 17 17" fill="none" xmlns="http://www.w3.org/2000/svg">
<path d="M15.3077 3.85512H11.6446V2.37906C11.6446 1.67624 11.0728 1.10449 10.37 1.10449H6.63001C5.92719 1.10449 5.3554 1.67624 5.3554 2.37906V3.85512H1.69234C0.759163 3.85512 0 4.61431 0 5.54746V14.2033C0 15.1364 0.759163 15.8956 1.69234 15.8956H15.3077C16.2408 15.8956 17 15.1364 17 14.2033V5.54746C17 4.61431 16.2408 3.85512 15.3077 3.85512ZM6.43501 2.37906C6.43501 2.27154 6.52249 2.1841 6.63001 2.1841H10.37C10.4775 2.1841 10.565 2.27158 10.565 2.37906V3.85512H6.43501V2.37906ZM1.0796 5.54746C1.0796 5.20958 1.35446 4.93472 1.69234 4.93472H15.3077C15.6455 4.93472 15.9204 5.20958 15.9204 5.54746V6.3464C15.9204 7.09578 15.4179 7.76544 14.6984 7.97492L9.0526 9.61871C8.69111 9.72401 8.30893 9.72401 7.94736 9.61871L2.30158 7.97488C1.58209 7.76541 1.0796 7.09578 1.0796 6.3464V5.54746ZM15.3077 14.816H1.69234C1.3545 14.816 1.0796 14.5412 1.0796 14.2033V8.54437C1.35163 8.75463 1.66171 8.91302 1.99976 9.01147C8.23646 10.8273 7.91592 10.7773 8.49998 10.7773C9.09177 10.7773 8.75622 10.8294 15.0002 9.01147C15.3383 8.91302 15.6484 8.75463 15.9204 8.54437V14.2033C15.9204 14.5411 15.6455 14.816 15.3077 14.816Z" fill="#96C12A"/>
</svg>
