<svg width="17" height="17" viewBox="0 0 17 17" fill="none" xmlns="http://www.w3.org/2000/svg">
<g clip-path="url(#clip0_175_106)">
<path d="M14.5208 16.9999H6.02083C5.04475 16.9999 4.25 16.2059 4.25 15.2291V4.60409C4.25 3.62729 5.04475 2.83325 6.02083 2.83325H14.5208C15.4969 2.83325 16.2917 3.62729 16.2917 4.60409V15.2291C16.2917 16.2059 15.4969 16.9999 14.5208 16.9999ZM6.02083 3.54159C5.43504 3.54159 4.95833 4.01829 4.95833 4.60409V15.2291C4.95833 15.8149 5.43504 16.2916 6.02083 16.2916H14.5208C15.1066 16.2916 15.5833 15.8149 15.5833 15.2291V4.60409C15.5833 4.01829 15.1066 3.54159 14.5208 3.54159H6.02083Z" fill="#96C12A"/>
<path d="M3.18748 14.875H2.47915C1.50306 14.875 0.708313 14.081 0.708313 13.1042V1.77083C0.708313 0.794042 1.50306 0 2.47915 0H10.9791C11.9552 0 12.75 0.794042 12.75 1.77083C12.75 1.96633 12.5913 2.125 12.3958 2.125C12.2003 2.125 12.0416 1.96633 12.0416 1.77083C12.0416 1.18504 11.5649 0.708333 10.9791 0.708333H2.47915C1.89335 0.708333 1.41665 1.18504 1.41665 1.77083V13.1042C1.41665 13.69 1.89335 14.1667 2.47915 14.1667H3.18748C3.38298 14.1667 3.54164 14.3253 3.54164 14.5208C3.54164 14.7163 3.38298 14.875 3.18748 14.875Z" fill="#96C12A"/>
<path d="M13.1042 12.0416H7.43748C7.24198 12.0416 7.08331 11.8829 7.08331 11.6874C7.08331 11.4919 7.24198 11.3333 7.43748 11.3333H13.1042C13.2997 11.3333 13.4583 11.4919 13.4583 11.6874C13.4583 11.8829 13.2997 12.0416 13.1042 12.0416Z" fill="#96C12A"/>
<path d="M13.1042 14.8751H7.43748C7.24198 14.8751 7.08331 14.7164 7.08331 14.5209C7.08331 14.3254 7.24198 14.1667 7.43748 14.1667H13.1042C13.2997 14.1667 13.4583 14.3254 13.4583 14.5209C13.4583 14.7164 13.2997 14.8751 13.1042 14.8751Z" fill="#96C12A"/>
<path d="M13.1042 9.20833H7.43748C7.24198 9.20833 7.08331 9.04967 7.08331 8.85417C7.08331 8.65867 7.24198 8.5 7.43748 8.5H13.1042C13.2997 8.5 13.4583 8.65867 13.4583 8.85417C13.4583 9.04967 13.2997 9.20833 13.1042 9.20833Z" fill="#96C12A"/>
<path d="M13.1042 6.37508H7.43748C7.24198 6.37508 7.08331 6.21641 7.08331 6.02091C7.08331 5.82541 7.24198 5.66675 7.43748 5.66675H13.1042C13.2997 5.66675 13.4583 5.82541 13.4583 6.02091C13.4583 6.21641 13.2997 6.37508 13.1042 6.37508Z" fill="#96C12A"/>
</g>
<defs>
<clipPath id="clip0_175_106">
<rect width="17" height="17" fill="white"/>
</clipPath>
</defs>
</svg>
