<svg width="16" height="16" viewBox="0 0 16 16" fill="none" xmlns="http://www.w3.org/2000/svg">
<g clip-path="url(#clip0_175_115)">
<path d="M15.1795 2.66675H0.820531C0.369219 2.66675 0 3.03597 0 3.48725V12.5129C0 12.9642 0.369219 13.3334 0.820531 13.3334H15.1795C15.6307 13.3334 16 12.9642 16 12.5129V3.48725C16 3.03597 15.6308 2.66675 15.1795 2.66675ZM14.8716 3.28209L8.472 8.08215C8.35694 8.16972 8.18031 8.2245 7.99997 8.22369C7.81966 8.2245 7.64306 8.16972 7.52797 8.08215L1.12841 3.28209H14.8716ZM11.4531 8.39887L14.9403 12.7066C14.9438 12.7109 14.9481 12.7142 14.9518 12.7181H1.04819C1.05187 12.714 1.05619 12.7109 1.05969 12.7066L4.54688 8.39887C4.65372 8.26678 4.63347 8.07312 4.50112 7.96603C4.36903 7.85919 4.17537 7.87944 4.0685 8.01156L0.615375 12.2772V3.66672L7.15894 8.5744C7.40491 8.75759 7.70416 8.83822 7.99994 8.83903C8.29531 8.8384 8.59481 8.75778 8.84094 8.5744L15.3845 3.66672V12.2772L11.9315 8.01156C11.8246 7.87947 11.6308 7.85915 11.4988 7.96603C11.3665 8.07287 11.3462 8.26678 11.4531 8.39887Z" fill="#96C12A"/>
</g>
<defs>
<clipPath id="clip0_175_115">
<rect width="16" height="16" fill="white"/>
</clipPath>
</defs>
</svg>
