<svg width="23" height="23" viewBox="0 0 23 23" fill="none" xmlns="http://www.w3.org/2000/svg">
<path d="M11 0C6.58871 0 3 3.64563 3 8.1269C3 9.60217 3.65129 11.1888 3.67859 11.2558C3.88894 11.763 4.304 12.5508 4.60329 13.0126L10.0885 21.4555C10.3129 21.8016 10.6452 22 11 22C11.3548 22 11.6871 21.8016 11.9115 21.456L17.3972 13.0126C17.6969 12.5508 18.1115 11.763 18.3219 11.2558C18.3492 11.1893 19 9.60265 19 8.1269C19 3.64563 15.4113 0 11 0ZM17.4541 10.8848C17.2664 11.3394 16.88 12.0723 16.6113 12.4863L11.1256 20.9296C11.0174 21.0965 10.9831 21.0965 10.8748 20.9296L5.38918 12.4863C5.12047 12.0723 4.73412 11.3389 4.54635 10.8843C4.53835 10.8647 3.94118 9.40426 3.94118 8.1269C3.94118 4.17292 7.10776 0.956106 11 0.956106C14.8922 0.956106 18.0588 4.17292 18.0588 8.1269C18.0588 9.40617 17.4602 10.8704 17.4541 10.8848Z" fill="#96C12A"/>
<path d="M11 4C8.79422 4 7 5.79467 7 8C7 10.2053 8.79422 12 11 12C13.2058 12 15 10.2053 15 8C15 5.79467 13.2058 4 11 4ZM11 11.1111C9.28489 11.1111 7.88889 9.71556 7.88889 8C7.88889 6.28444 9.28489 4.88889 11 4.88889C12.7151 4.88889 14.1111 6.28444 14.1111 8C14.1111 9.71556 12.7151 11.1111 11 11.1111Z" fill="#96C12A"/>
</svg>
