<svg width="43" height="43" viewBox="0 0 43 43" fill="none" xmlns="http://www.w3.org/2000/svg">
<path d="M34.523 0.335938H8.4754C6.5954 0.335938 5.07135 1.85998 5.07135 3.73999V39.2597C5.07135 41.1397 6.5954 42.6637 8.4754 42.6637H34.523C36.403 42.6637 37.927 41.1397 37.927 39.2597V3.73999C37.927 1.85998 36.403 0.335938 34.523 0.335938Z" fill="#B0B3C1"/>
<path d="M37.9274 3.7423V39.2596C37.9275 40.1624 37.569 41.0283 36.9307 41.6667C36.2925 42.3052 35.4268 42.6641 34.524 42.6643H8.47641C7.79858 42.6646 7.13611 42.4624 6.57396 42.0836C6.01181 41.7049 5.57561 41.1669 5.32129 40.5385H33.2941C33.8832 40.5387 34.4482 40.3051 34.8652 39.889C35.2822 39.4729 35.517 38.9084 35.518 38.3193V0.484375C36.2151 0.698589 36.8252 1.13054 37.2588 1.71687C37.6924 2.3032 37.9267 3.01305 37.9274 3.7423Z" fill="#9297AB"/>
<path d="M34.5233 43H8.47534C7.48394 42.9986 6.53357 42.604 5.8327 41.9028C5.13182 41.2016 4.73767 40.2511 4.73669 39.2597V3.73999C4.73776 2.74864 5.13195 1.79819 5.83282 1.09707C6.53368 0.395956 7.484 0.00142263 8.47534 0L34.5233 0C35.5149 0.00106708 36.4655 0.395443 37.1667 1.0966C37.8678 1.79775 38.2622 2.74841 38.2633 3.73999V39.2597C38.2623 40.2513 37.8679 41.2021 37.1668 41.9033C36.4656 42.6045 35.5149 42.9989 34.5233 43ZM8.47534 0.671875C7.66213 0.67312 6.88261 0.996809 6.30771 1.57196C5.73281 2.14711 5.40946 2.92678 5.40857 3.73999V39.2597C5.40937 40.0729 5.73268 40.8527 6.30759 41.4279C6.8825 42.0031 7.66208 42.3269 8.47534 42.3281H34.5233C35.3367 42.3272 36.1166 42.0037 36.6918 41.4285C37.267 40.8533 37.5905 40.0734 37.5914 39.26V3.73999C37.5905 2.92655 37.267 2.14668 36.6918 1.57149C36.1166 0.996297 35.3367 0.672764 34.5233 0.671875H8.47534Z" fill="#2F3A5A"/>
<path d="M34.4447 2.75293H8.55367C7.96237 2.75293 7.48303 3.23227 7.48303 3.82356V14.4331C7.48303 15.0244 7.96237 15.5038 8.55367 15.5038H34.4447C35.036 15.5038 35.5153 15.0244 35.5153 14.4331V3.82356C35.5153 3.23227 35.036 2.75293 34.4447 2.75293Z" fill="#D9E2E9"/>
<path d="M34.4447 15.8397H8.55397C8.18106 15.8393 7.82355 15.6909 7.55987 15.4272C7.29618 15.1636 7.14784 14.8061 7.1474 14.4331V3.82356C7.14784 3.4506 7.29623 3.09304 7.55999 2.82934C7.82374 2.56564 8.18134 2.41735 8.55431 2.41699H34.445C34.818 2.41735 35.1756 2.56564 35.4393 2.82934C35.7031 3.09304 35.8515 3.4506 35.8519 3.82356V14.4331C35.8515 14.8062 35.7031 15.1638 35.4392 15.4275C35.1754 15.6912 34.8177 15.8394 34.4447 15.8397ZM8.55397 3.08887C8.3592 3.08913 8.17248 3.16662 8.03476 3.30435C7.89703 3.44207 7.81954 3.62879 7.81928 3.82356V14.4331C7.81945 14.628 7.89695 14.8149 8.03476 14.9527C8.17256 15.0905 8.35942 15.168 8.55431 15.1682H34.445C34.6398 15.168 34.8267 15.0905 34.9644 14.9528C35.1022 14.8151 35.1798 14.6283 35.18 14.4335V3.82356C35.1798 3.62879 35.1023 3.44207 34.9646 3.30435C34.8268 3.16662 34.6401 3.08913 34.4454 3.08887H8.55397Z" fill="#2F3A5A"/>
<path d="M33.0845 5.06104H9.91553V13.1941H33.0845V5.06104Z" fill="#81DAFC"/>
<path d="M12.7119 18.9692H8.61615C8.49837 18.9734 8.38703 19.024 8.30655 19.1101C8.22607 19.1962 8.18301 19.3107 8.18682 19.4285V21.7424C8.18301 21.8602 8.22607 21.9747 8.30655 22.0608C8.38703 22.1469 8.49837 22.1975 8.61615 22.2016H12.7119C12.8297 22.1975 12.941 22.1469 13.0215 22.0608C13.102 21.9747 13.145 21.8602 13.1412 21.7424V19.4285C13.145 19.3107 13.102 19.1962 13.0215 19.1101C12.941 19.024 12.8297 18.9734 12.7119 18.9692Z" fill="#D9E2E9"/>
<path d="M12.7119 22.5379H8.61616C8.40929 22.5336 8.21258 22.4474 8.06913 22.2983C7.92568 22.1492 7.8472 21.9493 7.85089 21.7424V19.4288C7.8472 19.2219 7.92568 19.022 8.06913 18.8729C8.21258 18.7238 8.40929 18.6376 8.61616 18.6333H12.7119C12.9188 18.6376 13.1155 18.7238 13.2589 18.8729C13.4024 19.022 13.4809 19.2219 13.4772 19.4288V21.7424C13.4809 21.9493 13.4024 22.1492 13.2589 22.2983C13.1155 22.4474 12.9188 22.5336 12.7119 22.5379ZM8.61616 19.3055C8.56577 19.3055 8.52277 19.3619 8.52277 19.4291V21.7427C8.52277 21.8099 8.56543 21.8663 8.61616 21.8663H12.7119C12.7623 21.8663 12.8053 21.8099 12.8053 21.7427V19.4288C12.8053 19.3616 12.7626 19.3052 12.7119 19.3052L8.61616 19.3055Z" fill="#2F3A5A"/>
<path d="M19.8623 18.9692H15.7666C15.6488 18.9734 15.5375 19.024 15.457 19.1101C15.3765 19.1962 15.3335 19.3107 15.3373 19.4285V21.7424C15.3335 21.8602 15.3765 21.9747 15.457 22.0608C15.5375 22.1469 15.6488 22.1975 15.7666 22.2016H19.8623C19.9799 22.1973 20.091 22.1465 20.1713 22.0604C20.2516 21.9744 20.2945 21.86 20.2907 21.7424V19.4285C20.2945 19.3108 20.2516 19.1965 20.1713 19.1104C20.091 19.0244 19.9799 18.9736 19.8623 18.9692Z" fill="#D9E2E9"/>
<path d="M19.8623 22.5379H15.7666C15.5597 22.5336 15.363 22.4474 15.2195 22.2983C15.0761 22.1492 14.9976 21.9493 15.0013 21.7424V19.4288C14.9976 19.2219 15.0761 19.022 15.2195 18.8729C15.363 18.7238 15.5597 18.6376 15.7666 18.6333H19.8623C20.069 18.6379 20.2655 18.7242 20.4087 18.8733C20.5519 19.0223 20.6303 19.2221 20.6266 19.4288V21.7424C20.6303 21.9491 20.5519 22.1488 20.4087 22.2979C20.2655 22.447 20.069 22.5333 19.8623 22.5379ZM15.7666 19.3055C15.7162 19.3055 15.6732 19.3619 15.6732 19.4291V21.7427C15.6732 21.8099 15.7158 21.8663 15.7666 21.8663H19.8623C19.9127 21.8663 19.9557 21.8099 19.9557 21.7427V19.4288C19.9557 19.3616 19.913 19.3052 19.8623 19.3052L15.7666 19.3055Z" fill="#2F3A5A"/>
<path d="M27.0127 18.9692H22.917C22.7992 18.9734 22.6879 19.024 22.6074 19.1101C22.5269 19.1962 22.4839 19.3107 22.4877 19.4285V21.7424C22.4839 21.8602 22.5269 21.9747 22.6074 22.0608C22.6879 22.1469 22.7992 22.1975 22.917 22.2016H27.0127C27.1305 22.1975 27.2418 22.1469 27.3223 22.0608C27.4028 21.9747 27.4459 21.8602 27.442 21.7424V19.4285C27.4459 19.3107 27.4028 19.1962 27.3223 19.1101C27.2418 19.024 27.1305 18.9734 27.0127 18.9692Z" fill="#D9E2E9"/>
<path d="M27.0127 22.5379H22.9169C22.7101 22.5336 22.5134 22.4474 22.3699 22.2983C22.2265 22.1492 22.148 21.9493 22.1517 21.7424V19.4288C22.148 19.2219 22.2265 19.022 22.3699 18.8729C22.5134 18.7238 22.7101 18.6376 22.9169 18.6333H27.0127C27.2196 18.6376 27.4163 18.7238 27.5597 18.8729C27.7032 19.022 27.7817 19.2219 27.778 19.4288V21.7424C27.7817 21.9493 27.7032 22.1492 27.5597 22.2983C27.4163 22.4474 27.2196 22.5336 27.0127 22.5379ZM22.9169 19.3055C22.8666 19.3055 22.8236 19.3619 22.8236 19.4291V21.7427C22.8236 21.8099 22.8662 21.8663 22.9169 21.8663H27.0127C27.0634 21.8663 27.1061 21.8099 27.1061 21.7427V19.4288C27.1061 19.3616 27.0634 19.3052 27.0127 19.3052L22.9169 19.3055Z" fill="#2F3A5A"/>
<path d="M34.1632 18.9692H30.0664C29.9486 18.9734 29.8373 19.024 29.7568 19.1101C29.6763 19.1962 29.6333 19.3107 29.6371 19.4285V21.7424C29.6333 21.8602 29.6763 21.9747 29.7568 22.0608C29.8373 22.1469 29.9486 22.1975 30.0664 22.2016H34.1621C34.2799 22.1975 34.3913 22.1469 34.4717 22.0608C34.5522 21.9747 34.5953 21.8602 34.5915 21.7424V19.4285C34.5953 19.3108 34.5524 19.1965 34.4721 19.1104C34.3918 19.0244 34.2808 18.9736 34.1632 18.9692Z" fill="#D9E2E9"/>
<path d="M34.1632 22.5376H30.0664C29.8595 22.5333 29.6628 22.4471 29.5194 22.298C29.3759 22.1489 29.2975 21.949 29.3011 21.7421V19.4285C29.2975 19.2216 29.3761 19.0218 29.5195 18.8728C29.6629 18.7237 29.8596 18.6376 30.0664 18.6333H34.1622C34.369 18.6376 34.5658 18.7238 34.7092 18.8729C34.8526 19.022 34.9311 19.2219 34.9274 19.4288V21.7424C34.931 21.9491 34.8527 22.1487 34.7094 22.2978C34.5662 22.4468 34.3698 22.533 34.1632 22.5376ZM30.0664 19.3052C30.016 19.3052 29.973 19.3616 29.973 19.4288V21.7424C29.973 21.8096 30.0157 21.866 30.0664 21.866H34.1622C34.2126 21.866 34.2556 21.8096 34.2556 21.7424V19.4285C34.2556 19.3613 34.2129 19.3048 34.1622 19.3048L30.0664 19.3052Z" fill="#2F3A5A"/>
<path d="M12.7119 24.6138H8.61615C8.49837 24.6179 8.38703 24.6685 8.30655 24.7546C8.22607 24.8407 8.18301 24.9552 8.18682 25.073V27.3869C8.18301 27.5047 8.22607 27.6192 8.30655 27.7053C8.38703 27.7914 8.49837 27.842 8.61615 27.8462H12.7119C12.8297 27.842 12.941 27.7914 13.0215 27.7053C13.102 27.6192 13.145 27.5047 13.1412 27.3869V25.073C13.145 24.9552 13.102 24.8407 13.0215 24.7546C12.941 24.6685 12.8297 24.6179 12.7119 24.6138Z" fill="#D9E2E9"/>
<path d="M12.7119 28.1821H8.61615C8.40935 28.1778 8.21268 28.0917 8.06924 27.9426C7.92581 27.7936 7.84729 27.5938 7.85089 27.3869V25.073C7.84729 24.8662 7.92581 24.6664 8.06924 24.5173C8.21268 24.3683 8.40935 24.2822 8.61615 24.2778H12.7119C12.9187 24.2822 13.1154 24.3683 13.2588 24.5173C13.4023 24.6664 13.4808 24.8662 13.4772 25.073V27.3869C13.4808 27.5938 13.4023 27.7936 13.2588 27.9426C13.1154 28.0917 12.9187 28.1778 12.7119 28.1821ZM8.61615 24.9497C8.56576 24.9497 8.52276 25.0061 8.52276 25.073V27.3869C8.52276 27.4541 8.56543 27.5102 8.61615 27.5102H12.7119C12.7623 27.5102 12.8053 27.4538 12.8053 27.3869V25.073C12.8053 25.0058 12.7626 24.9497 12.7119 24.9497H8.61615Z" fill="#2F3A5A"/>
<path d="M19.8623 24.6138H15.7666C15.6488 24.6179 15.5375 24.6685 15.457 24.7546C15.3765 24.8407 15.3335 24.9552 15.3373 25.073V27.3869C15.3335 27.5047 15.3765 27.6192 15.457 27.7053C15.5375 27.7914 15.6488 27.842 15.7666 27.8462H19.8623C19.9799 27.8418 20.091 27.791 20.1713 27.705C20.2516 27.6189 20.2945 27.5046 20.2907 27.3869V25.073C20.2945 24.9554 20.2516 24.841 20.1713 24.755C20.091 24.6689 19.9799 24.6181 19.8623 24.6138Z" fill="#D9E2E9"/>
<path d="M19.8623 28.1821H15.7665C15.5597 28.1778 15.3631 28.0917 15.2196 27.9426C15.0762 27.7936 14.9977 27.5938 15.0013 27.3869V25.073C14.9977 24.8662 15.0762 24.6664 15.2196 24.5173C15.3631 24.3683 15.5597 24.2822 15.7665 24.2778H19.8623C20.0689 24.2824 20.2653 24.3687 20.4085 24.5177C20.5518 24.6667 20.6301 24.8663 20.6265 25.073V27.3869C20.6301 27.5936 20.5518 27.7933 20.4085 27.9423C20.2653 28.0913 20.0689 28.1775 19.8623 28.1821ZM15.7665 24.9497C15.7162 24.9497 15.6732 25.0061 15.6732 25.073V27.3869C15.6732 27.4541 15.7158 27.5102 15.7665 27.5102H19.8623C19.9127 27.5102 19.9557 27.4538 19.9557 27.3869V25.073C19.9557 25.0058 19.913 24.9497 19.8623 24.9497H15.7665Z" fill="#2F3A5A"/>
<path d="M27.0127 24.6138H22.917C22.7992 24.6179 22.6879 24.6685 22.6074 24.7546C22.5269 24.8407 22.4839 24.9552 22.4877 25.073V27.3869C22.4839 27.5047 22.5269 27.6192 22.6074 27.7053C22.6879 27.7914 22.7992 27.842 22.917 27.8462H27.0127C27.1305 27.842 27.2418 27.7914 27.3223 27.7053C27.4028 27.6192 27.4459 27.5047 27.442 27.3869V25.073C27.4459 24.9552 27.4028 24.8407 27.3223 24.7546C27.2418 24.6685 27.1305 24.6179 27.0127 24.6138Z" fill="#D9E2E9"/>
<path d="M27.0128 28.1821H22.917C22.7102 28.1778 22.5135 28.0917 22.3701 27.9426C22.2266 27.7936 22.1481 27.5938 22.1517 27.3869V25.073C22.1481 24.8662 22.2266 24.6664 22.3701 24.5173C22.5135 24.3683 22.7102 24.2822 22.917 24.2778H27.0128C27.2196 24.2822 27.4162 24.3683 27.5597 24.5173C27.7031 24.6664 27.7816 24.8662 27.778 25.073V27.3869C27.7816 27.5938 27.7031 27.7936 27.5597 27.9426C27.4162 28.0917 27.2196 28.1778 27.0128 28.1821ZM22.917 24.9497C22.8666 24.9497 22.8236 25.0061 22.8236 25.073V27.3869C22.8236 27.4541 22.8663 27.5102 22.917 27.5102H27.0128C27.0635 27.5102 27.1062 27.4538 27.1062 27.3869V25.073C27.1062 25.0058 27.0635 24.9497 27.0128 24.9497H22.917Z" fill="#2F3A5A"/>
<path d="M34.1632 24.6138H30.0664C29.9486 24.6179 29.8373 24.6685 29.7568 24.7546C29.6763 24.8407 29.6333 24.9552 29.6371 25.073V27.3869C29.6333 27.5047 29.6763 27.6192 29.7568 27.7053C29.8373 27.7914 29.9486 27.842 30.0664 27.8462H34.1621C34.2799 27.842 34.3913 27.7914 34.4717 27.7053C34.5522 27.6192 34.5953 27.5047 34.5915 27.3869V25.073C34.5953 24.9554 34.5524 24.841 34.4721 24.755C34.3918 24.6689 34.2808 24.6181 34.1632 24.6138Z" fill="#D9E2E9"/>
<path d="M34.1632 28.1821H30.0664C29.8596 28.1778 29.6629 28.0917 29.5195 27.9426C29.3761 27.7936 29.2975 27.5938 29.3011 27.3869V25.073C29.2975 24.8662 29.3761 24.6664 29.5195 24.5173C29.6629 24.3683 29.8596 24.2822 30.0664 24.2778H34.1621C34.369 24.2822 34.5656 24.3683 34.7091 24.5173C34.8525 24.6664 34.931 24.8662 34.9274 25.073V27.3869C34.931 27.5936 34.8526 27.7933 34.7094 27.9423C34.5662 28.0913 34.3698 28.1775 34.1632 28.1821ZM30.0664 24.9497C30.016 24.9497 29.973 25.0061 29.973 25.073V27.3869C29.973 27.4541 30.0157 27.5102 30.0664 27.5102H34.1621C34.2125 27.5102 34.2555 27.4538 34.2555 27.3869V25.073C34.2555 25.0058 34.2129 24.9497 34.1621 24.9497H30.0664Z" fill="#2F3A5A"/>
<path d="M12.7118 30.2588H8.61608C8.4983 30.2629 8.38697 30.3136 8.30648 30.3997C8.226 30.4857 8.18294 30.6002 8.18675 30.718V33.032C8.18464 33.0904 8.19408 33.1487 8.21452 33.2035C8.23496 33.2584 8.266 33.3086 8.30587 33.3514C8.34575 33.3942 8.39367 33.4287 8.4469 33.453C8.50012 33.4773 8.55762 33.4908 8.61608 33.4929H12.7118C12.8296 33.4887 12.9409 33.4381 13.0214 33.352C13.1019 33.2659 13.145 33.1514 13.1412 33.0336V30.718C13.145 30.6002 13.1019 30.4857 13.0214 30.3997C12.9409 30.3136 12.8296 30.2629 12.7118 30.2588Z" fill="#D9E2E9"/>
<path d="M12.7119 33.8288H8.61615C8.40935 33.8245 8.21268 33.7384 8.06924 33.5893C7.92581 33.4403 7.84729 33.2405 7.85089 33.0336V30.718C7.84729 30.5112 7.92581 30.3114 8.06924 30.1623C8.21268 30.0133 8.40935 29.9272 8.61615 29.9229H12.7119C12.9187 29.9272 13.1154 30.0133 13.2588 30.1623C13.4023 30.3114 13.4808 30.5112 13.4772 30.718V33.032C13.4812 33.2391 13.4029 33.4393 13.2594 33.5887C13.1159 33.7381 12.919 33.8245 12.7119 33.8288ZM8.61615 30.5947C8.56576 30.5947 8.52276 30.6512 8.52276 30.718V33.032C8.52276 33.0991 8.56543 33.1552 8.61615 33.1552H12.7119C12.7623 33.1552 12.8053 33.0988 12.8053 33.032V30.718C12.8053 30.6508 12.7626 30.5947 12.7119 30.5947H8.61615Z" fill="#2F3A5A"/>
<path d="M19.8623 30.2588H15.7665C15.6488 30.2629 15.5374 30.3136 15.4569 30.3997C15.3765 30.4857 15.3334 30.6002 15.3372 30.718V33.032C15.3351 33.0904 15.3445 33.1487 15.365 33.2035C15.3854 33.2584 15.4165 33.3086 15.4563 33.3514C15.4962 33.3942 15.5441 33.4287 15.5973 33.453C15.6506 33.4773 15.7081 33.4908 15.7665 33.4929H19.8623C19.9802 33.4885 20.0915 33.4375 20.1718 33.3511C20.2521 33.2646 20.2949 33.1499 20.2906 33.032V30.718C20.2944 30.6004 20.2515 30.4861 20.1712 30.4C20.091 30.3139 19.9799 30.2632 19.8623 30.2588Z" fill="#D9E2E9"/>
<path d="M19.8623 33.8288H15.7665C15.5597 33.8245 15.3631 33.7384 15.2196 33.5893C15.0762 33.4403 14.9977 33.2405 15.0013 33.0336V30.718C14.9977 30.5112 15.0762 30.3114 15.2196 30.1623C15.3631 30.0133 15.5597 29.9272 15.7665 29.9229H19.8623C20.0689 29.9274 20.2653 30.0137 20.4085 30.1627C20.5518 30.3117 20.6301 30.5114 20.6265 30.718V33.032C20.6306 33.2389 20.5524 33.439 20.4091 33.5884C20.2659 33.7378 20.0692 33.8242 19.8623 33.8288ZM15.7665 30.5947C15.7162 30.5947 15.6732 30.6512 15.6732 30.718V33.032C15.6732 33.0991 15.7158 33.1552 15.7665 33.1552H19.8623C19.9127 33.1552 19.9557 33.0988 19.9557 33.032V30.718C19.9557 30.6508 19.913 30.5947 19.8623 30.5947H15.7665Z" fill="#2F3A5A"/>
<path d="M27.0127 30.2588H22.917C22.7992 30.2629 22.6879 30.3136 22.6074 30.3997C22.5269 30.4857 22.4838 30.6002 22.4877 30.718V33.032C22.4855 33.0904 22.495 33.1487 22.5154 33.2035C22.5359 33.2584 22.5669 33.3086 22.6068 33.3514C22.6466 33.3942 22.6946 33.4287 22.7478 33.453C22.801 33.4773 22.8585 33.4908 22.917 33.4929H27.0127C27.1305 33.4887 27.2418 33.4381 27.3223 33.352C27.4028 33.2659 27.4459 33.1514 27.4421 33.0336V30.718C27.4459 30.6002 27.4028 30.4857 27.3223 30.3997C27.2418 30.3136 27.1305 30.2629 27.0127 30.2588Z" fill="#D9E2E9"/>
<path d="M27.0127 33.8288H22.917C22.7102 33.8245 22.5135 33.7384 22.3701 33.5893C22.2266 33.4403 22.1481 33.2405 22.1517 33.0336V30.718C22.1481 30.5112 22.2266 30.3114 22.3701 30.1623C22.5135 30.0133 22.7102 29.9272 22.917 29.9229H27.0127C27.2195 29.9272 27.4162 30.0133 27.5596 30.1623C27.7031 30.3114 27.7816 30.5112 27.778 30.718V33.032C27.7821 33.2391 27.7037 33.4393 27.5602 33.5887C27.4168 33.7381 27.2198 33.8245 27.0127 33.8288ZM22.917 30.5947C22.8666 30.5947 22.8236 30.6512 22.8236 30.718V33.032C22.8236 33.0991 22.8663 33.1552 22.917 33.1552H27.0127C27.0635 33.1552 27.1061 33.0988 27.1061 33.032V30.718C27.1061 30.6508 27.0635 30.5947 27.0127 30.5947H22.917Z" fill="#2F3A5A"/>
<path d="M34.1632 30.2588H30.0664C29.9486 30.2629 29.8373 30.3136 29.7568 30.3997C29.6763 30.4857 29.6333 30.6002 29.6371 30.718V33.032C29.635 33.0904 29.6444 33.1487 29.6648 33.2035C29.6853 33.2584 29.7163 33.3086 29.7562 33.3514C29.7961 33.3942 29.844 33.4287 29.8972 33.453C29.9504 33.4773 30.0079 33.4908 30.0664 33.4929H34.1622C34.2799 33.4887 34.3913 33.4381 34.4718 33.352C34.5522 33.2659 34.5953 33.1514 34.5915 33.0336V30.718C34.5953 30.6004 34.5524 30.4861 34.4721 30.4C34.3918 30.3139 34.2808 30.2632 34.1632 30.2588Z" fill="#D9E2E9"/>
<path d="M34.1632 33.8288H30.0664C29.8596 33.8245 29.6629 33.7384 29.5195 33.5893C29.3761 33.4403 29.2975 33.2405 29.3011 33.0336V30.718C29.2975 30.5112 29.3761 30.3114 29.5195 30.1623C29.6629 30.0133 29.8596 29.9272 30.0664 29.9229H34.1622C34.369 29.9272 34.5656 30.0133 34.7091 30.1623C34.8525 30.3114 34.931 30.5112 34.9274 30.718V33.032C34.9315 33.2389 34.8533 33.439 34.71 33.5884C34.5667 33.7378 34.3701 33.8242 34.1632 33.8288ZM30.0664 30.5947C30.016 30.5947 29.973 30.6512 29.973 30.718V33.032C29.973 33.0991 30.0157 33.1552 30.0664 33.1552H34.1622C34.2125 33.1552 34.2555 33.0988 34.2555 33.032V30.718C34.2555 30.6508 34.2129 30.5947 34.1622 30.5947H30.0664Z" fill="#2F3A5A"/>
<path d="M12.7119 35.9038H8.61615C8.49837 35.9079 8.38703 35.9586 8.30655 36.0447C8.22607 36.1308 8.18301 36.2452 8.18682 36.363V38.677C8.18301 38.7948 8.22607 38.9093 8.30655 38.9953C8.38703 39.0814 8.49837 39.1321 8.61615 39.1362H12.7119C12.8297 39.1321 12.941 39.0814 13.0215 38.9953C13.102 38.9093 13.145 38.7948 13.1412 38.677V36.363C13.145 36.2452 13.102 36.1308 13.0215 36.0447C12.941 35.9586 12.8297 35.9079 12.7119 35.9038Z" fill="#D9E2E9"/>
<path d="M12.7119 39.4725H8.61616C8.40929 39.4681 8.21258 39.382 8.06913 39.2329C7.92568 39.0838 7.8472 38.8839 7.85089 38.677V36.363C7.84729 36.1562 7.92581 35.9564 8.06925 35.8074C8.21269 35.6583 8.40935 35.5722 8.61616 35.5679H12.7119C12.9187 35.5722 13.1154 35.6583 13.2588 35.8074C13.4023 35.9564 13.4808 36.1562 13.4772 36.363V38.677C13.4809 38.8839 13.4024 39.0838 13.2589 39.2329C13.1155 39.382 12.9188 39.4681 12.7119 39.4725ZM8.61616 36.2397C8.56577 36.2397 8.52277 36.2962 8.52277 36.363V38.677C8.52277 38.7442 8.56543 38.8006 8.61616 38.8006H12.7119C12.7623 38.8006 12.8053 38.7442 12.8053 38.677V36.363C12.8053 36.2958 12.7626 36.2397 12.7119 36.2397H8.61616Z" fill="#2F3A5A"/>
<path d="M19.8623 35.9038H15.7666C15.6488 35.9079 15.5375 35.9586 15.457 36.0447C15.3765 36.1308 15.3335 36.2452 15.3373 36.363V38.677C15.3335 38.7948 15.3765 38.9093 15.457 38.9953C15.5375 39.0814 15.6488 39.1321 15.7666 39.1362H19.8623C19.9801 39.1321 20.0915 39.0814 20.1719 38.9953C20.2524 38.9093 20.2955 38.7948 20.2917 38.677V36.363C20.2955 36.2452 20.2524 36.1308 20.1719 36.0447C20.0915 35.9586 19.9801 35.9079 19.8623 35.9038Z" fill="#D9E2E9"/>
<path d="M19.8611 39.9046H15.7654C15.5585 39.9003 15.3618 39.8141 15.2184 39.665C15.0749 39.5159 14.9964 39.316 15.0001 39.1091V36.7952C14.9965 36.5883 15.075 36.3885 15.2185 36.2395C15.3619 36.0904 15.5586 36.0043 15.7654 36H19.8611C20.068 36.0043 20.2646 36.0904 20.4081 36.2395C20.5515 36.3885 20.63 36.5883 20.6264 36.7952V39.1091C20.6301 39.316 20.5516 39.5159 20.4082 39.665C20.2647 39.8141 20.068 39.9003 19.8611 39.9046ZM15.7654 36.6719C15.715 36.6719 15.672 36.7283 15.672 36.7952V39.1091C15.672 39.1763 15.7147 39.2327 15.7654 39.2327H19.8611C19.9115 39.2327 19.9545 39.1763 19.9545 39.1091V36.7952C19.9545 36.728 19.9119 36.6719 19.8611 36.6719H15.7654Z" fill="#2F3A5A"/>
<path d="M27.0127 35.9038H22.917C22.7992 35.9079 22.6879 35.9586 22.6074 36.0447C22.5269 36.1308 22.4839 36.2452 22.4877 36.363V38.677C22.4839 38.7948 22.5269 38.9093 22.6074 38.9953C22.6879 39.0814 22.7992 39.1321 22.917 39.1362H27.0127C27.1305 39.1321 27.2418 39.0814 27.3223 38.9953C27.4028 38.9093 27.4459 38.7948 27.442 38.677V36.363C27.4459 36.2452 27.4028 36.1308 27.3223 36.0447C27.2418 35.9586 27.1305 35.9079 27.0127 35.9038Z" fill="#D9E2E9"/>
<path d="M27.0127 39.4725H22.9169C22.7101 39.4681 22.5134 39.382 22.3699 39.2329C22.2265 39.0838 22.148 38.8839 22.1517 38.677V36.363C22.1481 36.1562 22.2266 35.9564 22.37 35.8074C22.5135 35.6583 22.7101 35.5722 22.9169 35.5679H27.0127C27.2195 35.5722 27.4162 35.6583 27.5596 35.8074C27.703 35.9564 27.7816 36.1562 27.778 36.363V38.677C27.7817 38.8839 27.7032 39.0838 27.5597 39.2329C27.4163 39.382 27.2196 39.4681 27.0127 39.4725ZM22.9169 36.2397C22.8666 36.2397 22.8236 36.2962 22.8236 36.363V38.677C22.8236 38.7442 22.8662 38.8006 22.9169 38.8006H27.0127C27.0634 38.8006 27.1061 38.7442 27.1061 38.677V36.363C27.1061 36.2958 27.0634 36.2397 27.0127 36.2397H22.9169Z" fill="#2F3A5A"/>
<path d="M34.1632 35.9038H30.0664C29.9486 35.9079 29.8373 35.9586 29.7568 36.0447C29.6763 36.1308 29.6333 36.2452 29.6371 36.363V38.677C29.6331 38.7949 29.6761 38.9095 29.7566 38.9958C29.8371 39.082 29.9485 39.1328 30.0664 39.1369H34.1622C34.28 39.1328 34.3913 39.0821 34.4718 38.996C34.5523 38.9099 34.5953 38.7954 34.5915 38.6777V36.3637C34.5955 36.246 34.5527 36.1315 34.4724 36.0453C34.3921 35.9591 34.2809 35.9082 34.1632 35.9038Z" fill="#D9E2E9"/>
<path d="M34.1632 39.4725H30.0664C29.8595 39.4681 29.6628 39.382 29.5194 39.2329C29.3759 39.0838 29.2975 38.8839 29.3011 38.677V36.363C29.2975 36.1562 29.3761 35.9564 29.5195 35.8074C29.6629 35.6583 29.8596 35.5722 30.0664 35.5679H34.1622C34.369 35.5722 34.5656 35.6583 34.7091 35.8074C34.8525 35.9564 34.931 36.1562 34.9274 36.363V38.677C34.9311 38.8837 34.8528 39.0834 34.7096 39.2325C34.5663 39.3816 34.3699 39.4679 34.1632 39.4725ZM30.0664 36.2394C30.016 36.2394 29.973 36.2958 29.973 36.3627V38.6766C29.973 38.7438 30.0157 38.8003 30.0664 38.8003H34.1622C34.2126 38.8003 34.2556 38.7438 34.2556 38.6766V36.3627C34.2556 36.2955 34.2129 36.2394 34.1622 36.2394H30.0664Z" fill="#2F3A5A"/>
<g opacity="0.5">
<path opacity="0.5" d="M22.6476 5.06104L18.1067 13.1941H13.9844L18.5256 5.06104H22.6476Z" fill="white"/>
<path opacity="0.5" d="M27.1845 5.06104L22.6433 13.1941H20.58L25.1212 5.06104H27.1845Z" fill="white"/>
</g>
<path d="M33.0845 13.5305H9.91425C9.82515 13.5305 9.7397 13.4951 9.6767 13.4321C9.6137 13.3691 9.57831 13.2837 9.57831 13.1946V5.06152C9.57831 4.97243 9.6137 4.88698 9.6767 4.82398C9.7397 4.76098 9.82515 4.72559 9.91425 4.72559H33.0845C33.1736 4.72559 33.2591 4.76098 33.3221 4.82398C33.3851 4.88698 33.4205 4.97243 33.4205 5.06152V13.1946C33.4205 13.2837 33.3851 13.3691 33.3221 13.4321C33.2591 13.4951 33.1736 13.5305 33.0845 13.5305ZM10.2502 12.8586H32.7486V5.39746H10.2502V12.8586Z" fill="#2F3A5A"/>
</svg>
