<svg width="33" height="31" viewBox="0 0 33 31" fill="none" xmlns="http://www.w3.org/2000/svg">
<path d="M32.1347 22.7508L27.5197 18.4247C25.8715 16.8797 23.0696 17.4977 22.4103 19.5062C21.9159 20.8969 20.2677 21.6694 18.7843 21.3603C15.4879 20.5878 11.0378 16.5707 10.2137 13.326C9.71924 11.9354 10.7082 10.3904 12.1915 9.92694C14.3342 9.30892 14.9935 6.68234 13.3453 5.13729L8.73032 0.811151C7.41177 -0.270384 5.43394 -0.270384 4.2802 0.811151L1.14864 3.74674C-1.98293 6.83684 1.47828 15.0256 9.22478 22.2873C16.9713 29.5491 25.7067 32.9482 29.0031 29.8581L32.1347 26.9225C33.2884 25.6864 33.2884 23.8324 32.1347 22.7508Z" fill="white"/>
</svg>
