<svg width="35" height="48" viewBox="0 0 35 48" fill="none" xmlns="http://www.w3.org/2000/svg">
<path d="M17.6498 47.7784C28.2758 47.7784 34.9688 42.1894 34.9688 34.3924C34.9688 27.2854 28.7588 23.6284 24.2738 23.2144C29.0348 22.3864 34.2788 18.7984 34.2788 12.6574C34.2788 4.92944 27.5858 0.237436 17.6498 0.237436C9.99083 0.237436 4.40183 3.34244 0.882829 7.48244L5.02283 12.5194C8.33483 9.20744 12.1988 7.41344 16.8908 7.41344C22.0658 7.41344 26.2058 9.62144 26.2058 13.8994C26.2058 18.1084 22.1348 19.9714 16.7528 19.9714C14.9588 19.9714 12.2678 19.9714 11.4398 19.9024V27.1474C12.1298 27.0784 14.8208 27.0784 16.7528 27.0784C23.3078 27.0784 26.9648 29.0104 26.9648 33.5644C26.9648 37.8424 23.4458 40.6024 17.3738 40.6024C12.4748 40.6024 7.57583 38.4634 4.60883 35.0134L0.261829 40.3264C3.36683 44.4664 9.43883 47.7784 17.6498 47.7784Z" fill="black" fill-opacity="0.05"/>
</svg>
