<svg width="36" height="48" viewBox="0 0 36 48" fill="none" xmlns="http://www.w3.org/2000/svg">
<path d="M17.7059 47.7784C27.9869 47.7784 35.2319 41.7754 35.2319 32.1844C35.2319 22.8004 28.2629 17.3494 20.5349 17.3494C16.1189 17.3494 12.3239 19.1434 10.1159 21.3514V8.03444H32.1959V0.927436H2.04285V26.6644L7.76985 28.3204C10.6679 25.5604 13.9109 24.3184 17.8439 24.3184C23.5019 24.3184 27.0899 27.5614 27.0899 32.5294C27.0899 37.0144 23.4329 40.6024 17.6369 40.6024C12.4619 40.6024 8.32185 38.6704 5.21685 35.1514L0.593853 40.6714C4.31985 45.0874 9.77085 47.7784 17.7059 47.7784Z" fill="black" fill-opacity="0.05"/>
</svg>
