<svg width="37" height="48" viewBox="0 0 37 48" fill="none" xmlns="http://www.w3.org/2000/svg">
<path d="M19.1952 47.7787C29.4762 47.7787 36.1692 40.8787 36.1692 32.3227C36.1692 22.5247 29.0622 17.4877 20.7822 17.4877C15.3312 17.4877 10.5012 20.7997 8.43125 23.9047C8.36225 23.4907 8.36225 23.0767 8.36225 22.5937C8.36225 14.5207 12.8472 7.41368 20.5062 7.41368C24.9222 7.41368 27.5442 8.93168 29.9592 11.4847L33.7542 5.34368C30.6492 2.30768 26.2332 0.23768 20.5062 0.23768C7.18925 0.23768 0.220247 10.7257 0.220247 24.0427C0.220247 36.8077 5.67125 47.7787 19.1952 47.7787ZM18.7812 40.6027C11.6742 40.6027 8.98325 34.8067 8.50025 29.8387C10.8462 26.5267 14.6412 24.3877 18.5742 24.3877C23.6112 24.3877 28.0272 26.9407 28.0272 32.5987C28.0272 36.3247 24.8532 40.6027 18.7812 40.6027Z" fill="black" fill-opacity="0.05"/>
</svg>
