<svg width="37" height="48" viewBox="0 0 37 48" fill="none" xmlns="http://www.w3.org/2000/svg">
<path d="M18.4603 47.7784C27.8443 47.7784 36.0553 43.3624 36.0553 35.1514C36.0553 29.2864 31.2943 25.0774 25.7053 23.2144C30.8803 21.5584 35.3653 18.1774 35.3653 12.3124C35.3653 3.82544 26.5333 0.237436 18.4603 0.237436C10.2493 0.237436 1.55531 3.82544 1.55531 12.3124C1.55531 18.1774 5.97131 21.5584 11.1463 23.2144C5.55731 25.0774 0.79631 29.2864 0.79631 35.1514C0.79631 43.4314 9.00731 47.7784 18.4603 47.7784ZM18.4603 20.0404C15.6313 19.5574 9.69731 17.9014 9.69731 13.5544C9.69731 9.69044 13.4233 7.41344 18.4603 7.41344C23.3593 7.41344 27.1543 9.69044 27.1543 13.5544C27.1543 17.9014 21.2893 19.5574 18.4603 20.0404ZM18.4603 40.6024C13.2163 40.6024 8.93831 38.1184 8.93831 34.1164C8.93831 29.3554 15.5623 27.2164 18.4603 26.8714C21.2893 27.2164 27.9133 29.3554 27.9133 34.1164C27.9133 38.1184 23.5663 40.6024 18.4603 40.6024Z" fill="black" fill-opacity="0.05"/>
</svg>
