<svg width="38" height="38" viewBox="0 0 38 38" fill="none" xmlns="http://www.w3.org/2000/svg">
<g clip-path="url(#clip0_301_2633)">
<path d="M35.0312 29.0938H30.2812V24.3438H35.0312V29.0938Z" fill="#96C12A"/>
<path d="M35.0312 35.0312H30.2812V30.2812H35.0312V35.0312Z" fill="#96C12A"/>
<path d="M35.0312 18.4062H29.0938V11.2812H35.0312V18.4062Z" fill="#96C12A"/>
<path d="M23.1562 24.3438V27.2383L25.6215 28.7791C25.935 28.975 26.125 29.3182 26.125 29.6875C26.125 30.0568 25.935 30.4 25.6215 30.5959L23.1562 32.1367V35.0312H29.0938V24.3438H23.1562Z" fill="#96C12A"/>
<path d="M35.625 21.9688H21.375C20.3929 21.9688 19.5938 22.7679 19.5938 23.75V25.5312H4.75C2.45813 25.5312 0.59375 27.3956 0.59375 29.6875C0.59375 31.9794 2.45813 33.8438 4.75 33.8438H19.5938V35.625C19.5938 36.6071 20.3929 37.4062 21.375 37.4062H35.625C36.6071 37.4062 37.4062 36.6071 37.4062 35.625V23.75C37.4062 22.7679 36.6071 21.9688 35.625 21.9688ZM7.71875 29.0938H20.7812V30.2812H7.71875V29.0938ZM20.7812 27.9062H7.71875V26.7188H20.7812V27.9062ZM7.71875 31.4688H20.7812V32.6562H7.71875V31.4688ZM21.9688 27.1961L25.3068 29.2826C25.4475 29.3704 25.5312 29.5218 25.5312 29.6875C25.5312 29.8532 25.4475 30.0046 25.3068 30.0924L21.9688 32.1789V27.1961ZM1.78125 29.6875C1.78125 28.0505 3.11303 26.7188 4.75 26.7188H6.53125V32.6562H4.75C3.11303 32.6562 1.78125 31.3245 1.78125 29.6875ZM36.2188 35.625C36.2188 35.9522 35.9522 36.2188 35.625 36.2188H21.375C21.0478 36.2188 20.7812 35.9522 20.7812 35.625V33.8438H21.5454L25.9362 31.0994C26.426 30.7931 26.7188 30.2658 26.7188 29.6875C26.7188 29.1092 26.426 28.5819 25.9362 28.2756L21.5454 25.5312H20.7812V23.75C20.7812 23.4228 21.0478 23.1562 21.375 23.1562H35.625C35.9522 23.1562 36.2188 23.4228 36.2188 23.75V35.625Z" fill="black"/>
<path d="M35.625 5.34375H21.375C20.3929 5.34375 19.5938 6.14294 19.5938 7.125V19C19.5938 19.9821 20.3929 20.7812 21.375 20.7812H35.625C36.6071 20.7812 37.4062 19.9821 37.4062 19V7.125C37.4062 6.14294 36.6071 5.34375 35.625 5.34375ZM36.2188 7.125V8.90625H27.9062V6.53125H35.625C35.9522 6.53125 36.2188 6.79784 36.2188 7.125ZM24.3438 14.8438H20.7812V13.6562H24.3438V14.8438ZM24.3438 16.0312V17.2188H20.7812V16.0312H24.3438ZM24.3438 12.4688H20.7812V11.2812H24.3438V12.4688ZM20.7812 19V18.4062H24.3438V19.5938H21.375C21.0478 19.5938 20.7812 19.3272 20.7812 19ZM35.625 19.5938H25.5312V10.0938H20.7812V7.125C20.7812 6.79784 21.0478 6.53125 21.375 6.53125H26.7188V10.0938H36.2188V19C36.2188 19.3272 35.9522 19.5938 35.625 19.5938Z" fill="black"/>
<path d="M9.36141 2.01577C9.79128 1.7088 10.3957 1.7088 10.8256 2.01577L18.6548 7.60771L19.3447 6.64168L11.5155 1.04914C10.6807 0.45302 9.50628 0.45302 8.67147 1.04914L0.842285 6.64227L1.53222 7.6083L9.36141 2.01577Z" fill="black"/>
<path d="M17.2747 9.54099L17.9646 8.57437L10.0939 2.95215L2.22314 8.57437L2.91308 9.54099L4.15639 8.65274V17.8125H2.96889V19H17.2189V17.8125H16.0314V8.65274L17.2747 9.54099ZM11.2814 17.8125H8.90639V13.0625H11.2814V17.8125ZM14.8439 17.8125H12.4689V11.875H7.71889V17.8125H5.34389V7.80427L10.0939 4.41159L14.8439 7.80427V17.8125Z" fill="black"/>
<path d="M7.71875 10.6875H12.4688V7.125H7.71875V10.6875ZM8.90625 8.3125H11.2812V9.5H8.90625V8.3125Z" fill="black"/>
</g>
<defs>
<clipPath id="clip0_301_2633">
<rect width="38" height="38" fill="white"/>
</clipPath>
</defs>
</svg>
