<svg width="36" height="36" viewBox="0 0 36 36" fill="none" xmlns="http://www.w3.org/2000/svg">
<g clip-path="url(#clip0_301_2653)">
<path d="M9 34.3125C8.06962 34.3125 7.3125 33.5554 7.3125 32.625C7.3125 31.6946 8.06962 30.9375 9 30.9375C9.93038 30.9375 10.6875 31.6946 10.6875 32.625C10.6875 33.5554 9.93038 34.3125 9 34.3125Z" fill="#96C12A"/>
<path d="M14.625 34.3125C13.6946 34.3125 12.9375 33.5554 12.9375 32.625C12.9375 31.6946 13.6946 30.9375 14.625 30.9375C15.5554 30.9375 16.3125 31.6946 16.3125 32.625C16.3125 33.5554 15.5554 34.3125 14.625 34.3125Z" fill="#96C12A"/>
<path d="M25.3125 24.1875C23.7617 24.1875 22.5 22.9258 22.5 21.375C22.5 19.8242 23.7617 18.5625 25.3125 18.5625C26.8633 18.5625 28.125 19.8242 28.125 21.375C28.125 22.9258 26.8633 24.1875 25.3125 24.1875Z" fill="#96C12A"/>
<path d="M23.0625 10.6875H27.5625V7.3125H23.0625V10.6875ZM24.1875 8.4375H26.4375V9.5625H24.1875V8.4375Z" fill="black"/>
<path d="M29.7124 11.8125H35.4375V6.1875H33.9412L26.6287 0.5625H24.093L7.7805 6.1875H5.36119L2.57288 9.53438C2.36475 9.783 2.25 10.0991 2.25 10.4242C2.25 11.1898 2.87269 11.8125 3.63881 11.8125H6.1875V15.1875H0.5625V20.8125H6.1875C6.1875 21.4329 6.69206 21.9375 7.3125 21.9375H8.4375C9.05794 21.9375 9.5625 21.4329 9.5625 20.8125H15.1875V15.1875H9.5625V11.8125H20.9126C21.0831 12.2872 21.4605 12.6641 21.9375 12.834V20.7191L17.7744 23.5221C17.0556 22.5624 15.9131 21.9375 14.625 21.9375H11.25C9.69919 21.9375 8.4375 23.1992 8.4375 24.75V25.3125H3.375C1.82419 25.3125 0.5625 26.5742 0.5625 28.125V30.9375H5.63963C5.28244 31.4089 5.0625 31.9894 5.0625 32.625C5.0625 34.1758 6.32419 35.4375 7.875 35.4375H15.1875H15.75H29.0059H29.25H31.5C33.6707 35.4375 35.4375 33.6712 35.4375 31.5V28.125V27.5625V27.3088L28.6875 21.3525V12.834C29.1639 12.6641 29.5419 12.2872 29.7124 11.8125ZM34.3125 10.6875H29.8125V7.3125H34.3125V10.6875ZM29.709 6.1875C29.5217 5.66156 29.0835 5.25712 28.5362 5.11931L27.6559 2.772L32.0963 6.1875H29.709ZM24.5773 1.6875H26.0477L27.3133 5.0625H23.3117L24.5773 1.6875ZM20.8125 7.3125V10.6875H17.4375L19.9688 7.3125H20.8125ZM16.3125 10.3123L14.0625 7.3125H18.5625L16.3125 10.3123ZM15.1875 10.6875H10.6875L12.9375 7.68769L15.1875 10.6875ZM9.5625 10.3123L7.3125 7.3125H11.8125L9.5625 10.3123ZM3.375 10.4242C3.375 10.3629 3.39638 10.3033 3.43631 10.2555L5.88881 7.3125H5.90625L8.4375 10.6875H3.63881C3.49312 10.6875 3.375 10.5694 3.375 10.4242ZM6.1875 16.3125V17.4375H1.6875V16.3125H6.1875ZM1.6875 19.6875V18.5625H6.1875V19.6875H1.6875ZM9.5625 19.6875V18.5625H14.0625V19.6875H9.5625ZM14.0625 16.3125V17.4375H9.5625V16.3125H14.0625ZM8.4375 20.8125H7.3125V11.8125H8.4375V20.8125ZM20.916 6.1875H11.232L23.2414 2.04638L22.0894 5.11875C21.5415 5.25713 21.1039 5.66156 20.916 6.1875ZM22.1743 34.3125H17.9859C18.3426 33.8411 18.5625 33.2606 18.5625 32.625C18.5625 31.9894 18.3426 31.4089 17.9854 30.9375H18.5625V28.3056L21.9375 26.0235V33.1875C21.9375 33.579 22.0208 33.9609 22.1743 34.3125ZM23.0625 33.1875C23.0625 32.2571 23.8196 31.5 24.75 31.5C25.0954 31.5 25.4295 31.6063 25.7158 31.8077L26.2637 32.193L26.5489 31.5872C26.7368 31.1861 27.1254 30.9375 27.5625 30.9375C28.0839 30.9375 28.5244 31.2924 28.6487 31.7835L27.7684 33.2511C27.6339 33.4755 27.5625 33.732 27.5625 33.9941C27.5625 34.1038 27.5771 34.2101 27.6007 34.3125H23.5057C23.2267 34.0037 23.0625 33.6071 23.0625 33.1875ZM15.1875 29.8125H11.8125V25.3125H14.625C14.9355 25.3125 15.1875 25.5651 15.1875 25.875V29.8125ZM1.6875 28.125C1.6875 27.1946 2.44463 26.4375 3.375 26.4375H9.5625V24.75C9.5625 23.8196 10.3196 23.0625 11.25 23.0625H14.625C16.1758 23.0625 17.4375 24.3242 17.4375 25.875V29.8125H16.3125V25.875C16.3125 24.9446 15.5554 24.1875 14.625 24.1875H11.8125C11.1921 24.1875 10.6875 24.6921 10.6875 25.3125V29.8125H7.875H1.6875V28.125ZM15.1875 34.3125H7.875C6.94462 34.3125 6.1875 33.5554 6.1875 32.625C6.1875 31.6946 6.94462 30.9375 7.875 30.9375H15.75C16.6804 30.9375 17.4375 31.6946 17.4375 32.625C17.4375 33.5554 16.6804 34.3125 15.75 34.3125H15.1875ZM34.3125 31.5C34.3125 33.0508 33.0508 34.3125 31.5 34.3125H29.25H29.0059C28.8304 34.3125 28.6875 34.1696 28.6875 33.9941C28.6875 33.9367 28.7033 33.8799 28.7331 33.8304L31.8184 28.6875H34.3125V31.5ZM28.6875 30.1174V26.55L30.7676 28.2521L29.3226 30.6607C29.1476 30.4414 28.9311 30.2586 28.6875 30.1174ZM34.0251 27.5625H31.7008L26.9359 23.6638C26.5888 23.9107 26.1844 24.075 25.7462 24.1436L27.5625 25.6297V29.8125C26.9004 29.8125 26.2783 30.1106 25.8564 30.6034C25.5088 30.4532 25.1342 30.375 24.75 30.375C24.1144 30.375 23.5339 30.5949 23.0625 30.9521V25.263L24.741 24.1284C24.3011 24.0373 23.9068 23.8337 23.5676 23.5631L18.5625 26.9471V25.875C18.5625 25.3963 18.4725 24.939 18.315 24.5138L22.5304 21.6759C22.5197 21.5758 22.5 21.4779 22.5 21.375C22.5 20.7472 22.7138 20.1735 23.0625 19.7049V12.9375H27.5625V19.7049C27.9112 20.1735 28.125 20.7478 28.125 21.375C28.125 21.6742 28.0654 21.9572 27.9788 22.2277L34.0251 27.5625ZM28.125 11.8125H22.5C22.1895 11.8125 21.9375 11.5599 21.9375 11.25V6.75C21.9375 6.44006 22.1895 6.1875 22.5 6.1875H28.125C28.4355 6.1875 28.6875 6.44006 28.6875 6.75V11.25C28.6875 11.5599 28.4355 11.8125 28.125 11.8125Z" fill="black"/>
<path d="M2.8125 27.5625H3.9375V28.6875H2.8125V27.5625Z" fill="black"/>
<path d="M5.0625 27.5625H6.1875V28.6875H5.0625V27.5625Z" fill="black"/>
<path d="M7.3125 27.5625H8.4375V28.6875H7.3125V27.5625Z" fill="black"/>
</g>
<defs>
<clipPath id="clip0_301_2653">
<rect width="36" height="36" fill="white"/>
</clipPath>
</defs>
</svg>
