<svg width="36" height="51" viewBox="0 0 36 51" fill="none" xmlns="http://www.w3.org/2000/svg">
<path d="M30.9345 18.3936H22.5738V20.0657H30.9345C32.3173 20.0657 33.4428 21.191 33.4428 22.574V25.94C32.7422 25.409 31.8792 25.0822 30.9345 25.0822H4.18041C2.79758 25.0822 1.67213 23.957 1.67213 22.574C1.67213 21.191 2.79758 20.0657 4.18041 20.0657H13.3772V18.3936H4.18041C1.87546 18.3936 0 20.2688 0 22.574V46.8197C0 49.1247 1.87528 51.0001 4.18041 51.0001H30.9345C33.2394 51.0001 35.1149 49.1249 35.1149 46.8197V44.3115V32.6066V29.2623V22.5738C35.1147 20.2688 33.2394 18.3936 30.9345 18.3936ZM33.4426 42.6395H23.4098C21.1049 42.6395 19.2294 40.7642 19.2294 38.4591C19.2294 36.154 21.1047 34.2787 23.4098 34.2787H33.4426V42.6395ZM33.4426 32.6067H23.4098C20.1826 32.6067 17.5573 35.2327 17.5573 38.4593C17.5573 41.6858 20.1826 44.3118 23.4098 44.3118H33.4426V46.8197C33.4426 48.2026 32.3173 49.328 30.9343 49.328H4.18023C2.79741 49.328 1.67195 48.2027 1.67195 46.8197V25.9164C2.37094 26.4422 3.23956 26.7542 4.18023 26.7542H30.9343C32.3171 26.7542 33.4426 27.8795 33.4426 29.2625V32.6067Z" fill="black"/>
<path d="M30.9347 21.7378H4.18066V23.4099H30.9347V21.7378Z" fill="black"/>
<path d="M17.5577 22.5738C21.2516 22.5738 24.2462 19.5793 24.2462 15.8853C24.2462 12.1913 21.2516 9.19678 17.5577 9.19678C13.8637 9.19678 10.8691 12.1913 10.8691 15.8853C10.8691 19.5793 13.8637 22.5738 17.5577 22.5738Z" fill="#96C12A"/>
<path d="M18.3933 18.3933H16.7212C16.2605 18.3933 15.885 18.0179 15.885 17.5572H14.2129C14.2129 18.94 15.3382 20.0655 16.7212 20.0655V20.9016H18.3933V20.0655C19.7761 20.0655 20.9016 18.9402 20.9016 17.5572C20.9016 16.1742 19.7763 15.0489 18.3933 15.0489H16.7212C16.2605 15.0489 15.885 14.6734 15.885 14.2127C15.885 13.752 16.2605 13.3769 16.7212 13.3769H18.3933C18.854 13.3769 19.2295 13.7524 19.2295 14.2131H20.9016C20.9016 12.8303 19.7763 11.7048 18.3933 11.7048V10.8687H16.7212V11.7048C15.3383 11.7048 14.2129 12.8301 14.2129 14.2131C14.2129 15.5961 15.3382 16.7214 16.7212 16.7214H18.3933C18.854 16.7214 19.2295 17.0968 19.2295 17.5575C19.2295 18.0182 18.854 18.3933 18.3933 18.3933Z" fill="black"/>
<path d="M20.9019 38.459C20.9019 39.8418 22.0271 40.9673 23.4101 40.9673C24.7931 40.9673 25.9184 39.842 25.9184 38.459C25.9184 37.076 24.7931 35.9507 23.4101 35.9507C22.0271 35.9507 20.9019 37.0761 20.9019 38.459ZM24.2461 38.459C24.2461 38.9204 23.8707 39.2951 23.41 39.2951C22.9493 39.2951 22.5738 38.9206 22.5738 38.459C22.5738 37.9974 22.9493 37.6228 23.41 37.6228C23.8707 37.6228 24.2461 37.9976 24.2461 38.459Z" fill="black"/>
<path d="M18.3933 0H16.7212V6.68852H18.3933V0Z" fill="black"/>
<path d="M24.2459 2.5083H22.5737V9.19681H24.2459V2.5083Z" fill="black"/>
<path d="M12.5413 4.18066H10.8691V9.19705H12.5413V4.18066Z" fill="black"/>
</svg>
