<svg width="42" height="42" viewBox="0 0 42 42" fill="none" xmlns="http://www.w3.org/2000/svg">
<g clip-path="url(#clip0_301_2670)">
<path d="M32.1562 11.8125H26.9062V7.875H32.1562V11.8125Z" fill="#96C12A"/>
<path d="M21.6562 34.7812H16.4062V29.5312H21.6562V34.7812Z" fill="#96C12A"/>
<path d="M30.8438 38.7188H25.5938V33.4688H30.8438V38.7188Z" fill="#96C12A"/>
<path d="M37.4062 38.7188H32.1562V33.4688H37.4062V38.7188Z" fill="#96C12A"/>
<path d="M41.3438 27.5628L38.6007 13.7815H36.0938V9.7318L37.5723 10.7877C37.9083 11.0292 38.3047 11.1565 38.7182 11.1565C39.3528 11.1565 39.9519 10.8481 40.3207 10.3316C40.6265 9.90374 40.7473 9.38202 40.6607 8.86293C40.5734 8.34318 40.2899 7.88971 39.8627 7.58652L30.6745 1.02271C30.0025 0.543645 29.0575 0.543645 28.3875 1.02402L19.2013 7.58521C18.7727 7.88971 18.4892 8.34383 18.402 8.86293C18.3153 9.38202 18.4354 9.90374 18.7426 10.3329C19.3516 11.1834 20.6372 11.3974 21.4883 10.789L22.9688 9.73114V13.7815H16.6616L15.7474 12.9691C15.0249 12.3246 13.8496 12.326 13.1297 12.9678L1.31781 23.4665C0.924059 23.8156 0.690434 24.2973 0.65959 24.8223C0.629403 25.3479 0.804621 25.8532 1.15309 26.245C1.5265 26.6663 2.06331 26.9078 2.62506 26.9078C3.1074 26.9078 3.57203 26.7306 3.93362 26.4091L4.59381 25.8224V41.344H40.0313V32.1565H41.3438V27.5628ZM37.5244 15.094L40.0313 27.6277V28.219H24.2813V25.8224L24.9415 26.4091C25.7224 27.1041 27.0277 27.026 27.7214 26.2463C28.0705 25.8532 28.2457 25.3479 28.2149 24.8223C28.184 24.2966 27.9504 23.8156 27.558 23.4678L24.7827 21.0003H36.0938V15.094H37.5244ZM30.8438 19.6878H28.2188V14.4378H30.8438V19.6878ZM20.7251 9.7213C20.4403 9.92408 20.0117 9.85124 19.8096 9.56971C19.7072 9.42664 19.6672 9.25274 19.6961 9.07949C19.7256 8.90361 19.8175 8.75727 19.9625 8.65358L29.15 2.09174C29.3745 1.93161 29.6888 1.93293 29.9119 2.09108L39.1001 8.65555C39.2418 8.75596 39.3363 8.90689 39.3652 9.07949C39.3941 9.25274 39.3541 9.42599 39.2523 9.56839C39.0496 9.85321 38.623 9.92671 38.3356 9.72064L29.5313 3.4318L20.7251 9.7213ZM29.5313 5.04421L34.7813 8.79468V19.6878H32.1563V13.1253H26.9063V19.6878H24.2813V8.79402L29.5313 5.04421ZM22.9688 15.094V19.3879L18.1382 15.094H22.9688ZM3.06147 25.4286C2.79962 25.6616 2.36715 25.6347 2.13418 25.3735C2.01803 25.2436 1.95962 25.0749 1.97012 24.8991C1.98062 24.7238 2.05806 24.5637 2.18931 24.4475L14.0018 13.9476C14.1226 13.8406 14.2768 13.7815 14.4376 13.7815C14.5983 13.7815 14.7532 13.8406 14.8746 13.9489L26.6871 24.4489C26.8177 24.565 26.8952 24.7245 26.905 24.8997C26.9155 25.0776 26.8584 25.2416 26.7403 25.3755C26.5093 25.6354 26.0748 25.6616 25.8137 25.4293L14.4376 15.3165L3.06147 25.4286ZM14.4376 17.0726L22.9688 24.6556V26.9065H17.7188V21.6565H11.1563V26.9065H5.90631V24.6556L14.4376 17.0726ZM16.4063 26.9065H12.4688V22.969H16.4063V26.9065ZM5.90631 28.219H22.9688V40.0315H15.0938V32.1565H7.21881V40.0315H5.90631V28.219ZM13.7813 40.0315H8.53131V33.469H13.7813V40.0315ZM38.7188 40.0315H24.2813V32.1565H38.7188V40.0315ZM24.2813 30.844V29.5315H40.0313V30.844H24.2813Z" fill="black"/>
</g>
<defs>
<clipPath id="clip0_301_2670">
<rect width="42" height="42" fill="white"/>
</clipPath>
</defs>
</svg>
