<svg width="44" height="44" viewBox="0 0 44 44" fill="none" xmlns="http://www.w3.org/2000/svg">
<path d="M22 40.5625C12.5228 40.5625 4.8125 32.8522 4.8125 23.375C4.8125 13.8978 12.5228 6.1875 22 6.1875C31.4772 6.1875 39.1875 13.8978 39.1875 23.375C39.1875 32.8522 31.4772 40.5625 22 40.5625ZM22 9.625C14.4183 9.625 8.25 15.7933 8.25 23.375C8.25 30.9567 14.4183 37.125 22 37.125C29.5817 37.125 35.75 30.9567 35.75 23.375C35.75 15.7933 29.5817 9.625 22 9.625Z" fill="#96C12A"/>
<path d="M22.6875 20.7226V14.4375H21.3125V20.7226C20.13 21.0299 19.25 22.0976 19.25 23.375C19.25 23.8837 19.3978 24.354 19.6398 24.7631L16.7014 27.7014L17.6735 28.6736L20.6119 25.7352C21.021 25.9772 21.4912 26.125 22 26.125C23.5166 26.125 24.75 24.8916 24.75 23.375C24.75 22.0976 23.87 21.0299 22.6875 20.7226ZM22 24.75C21.2417 24.75 20.625 24.1333 20.625 23.375C20.625 22.6167 21.2417 22 22 22C22.7583 22 23.375 22.6167 23.375 23.375C23.375 24.1333 22.7583 24.75 22 24.75Z" fill="black"/>
<path d="M13.0625 41.9375C11.1671 41.9375 9.625 40.3954 9.625 38.5C9.625 37.6241 9.95706 36.8046 10.5435 36.1735C10.2025 35.8675 9.87525 35.5472 9.559 35.2151C8.72369 36.1013 8.25 37.2611 8.25 38.5C8.25 41.1537 10.4087 43.3125 13.0625 43.3125C15.1834 43.3125 16.9964 41.956 17.6296 39.9973C17.1834 39.8798 16.7454 39.743 16.3144 39.5917C15.8558 40.9784 14.5688 41.9375 13.0625 41.9375Z" fill="black"/>
<path d="M33.4565 36.1735C34.0429 36.8046 34.375 37.6241 34.375 38.5C34.375 40.3954 32.8329 41.9375 30.9375 41.9375C29.4312 41.9375 28.1442 40.9784 27.6856 39.5917C27.2545 39.7437 26.8166 39.8805 26.3704 39.9973C27.0036 41.956 28.8165 43.3125 30.9375 43.3125C33.5912 43.3125 35.75 41.1537 35.75 38.5C35.75 37.2611 35.2763 36.1013 34.441 35.2151C34.1247 35.5472 33.7982 35.8675 33.4565 36.1735Z" fill="black"/>
<path d="M38.9455 5.0545C37.9025 4.01156 36.5166 3.4375 35.0426 3.4375C33.5679 3.4375 32.1819 4.01156 31.1389 5.0545L30.6529 5.54056L32.6947 7.58244L31.3273 8.94987C31.7178 9.20356 32.098 9.47169 32.4665 9.75562L33.6669 8.55525L35.4447 10.3331L34.3441 11.4338C34.6631 11.7638 34.9724 12.1034 35.2646 12.4575L36.4169 11.3053L38.4587 13.3471L38.9448 12.8611C39.9884 11.8181 40.5625 10.4321 40.5625 8.95744C40.5625 7.48344 39.9884 6.09744 38.9455 5.0545ZM38.4195 11.363L32.637 5.58044C33.3341 5.08131 34.1674 4.8125 35.0426 4.8125C36.1494 4.8125 37.191 5.24356 37.9734 6.02662C38.7564 6.80969 39.1875 7.85056 39.1875 8.95744C39.1875 9.83263 38.9187 10.6659 38.4195 11.363Z" fill="black"/>
<path d="M17.875 4.8125H19.25V6.41025C19.7024 6.33738 20.1616 6.28444 20.625 6.24731V4.8125H23.375V6.24731C23.8384 6.28444 24.2976 6.33669 24.75 6.41025V4.8125H26.125C26.8833 4.8125 27.5 4.19581 27.5 3.4375C27.5 1.92087 26.2666 0.6875 24.75 0.6875H19.25C17.7334 0.6875 16.5 1.92087 16.5 3.4375C16.5 4.19581 17.1167 4.8125 17.875 4.8125ZM19.25 2.0625H24.75C25.5083 2.0625 26.125 2.67919 26.1257 3.4375H17.875C17.875 2.67919 18.4917 2.0625 19.25 2.0625Z" fill="black"/>
<path d="M8.73538 12.4575C9.02756 12.1028 9.33694 11.7631 9.65594 11.4338L8.55525 10.3331L10.3331 8.55525L11.5335 9.75562C11.9013 9.47237 12.2815 9.20356 12.6727 8.94987L11.3053 7.58244L13.3471 5.54056L12.8611 5.0545C11.8181 4.01156 10.4321 3.4375 8.95744 3.4375C7.48275 3.4375 6.09675 4.01156 5.0545 5.0545C4.01225 6.09744 3.4375 7.48344 3.4375 8.95744C3.4375 10.4321 4.01156 11.8181 5.0545 12.8611L5.54056 13.3471L7.58244 11.3053L8.73538 12.4575ZM4.8125 8.95744C4.8125 7.85056 5.24356 6.809 6.02662 6.02662C6.80969 5.24356 7.85056 4.8125 8.95744 4.8125C9.83194 4.8125 10.6652 5.08131 11.363 5.58044L5.58044 11.363C5.08131 10.6659 4.8125 9.83263 4.8125 8.95744Z" fill="black"/>
<path d="M22 8.9375C14.0388 8.9375 7.5625 15.4138 7.5625 23.375C7.5625 31.3363 14.0388 37.8125 22 37.8125C29.9613 37.8125 36.4375 31.3363 36.4375 23.375C36.4375 15.4138 29.9613 8.9375 22 8.9375ZM35.0274 24.0625C34.8659 27.1453 33.6359 29.9427 31.6951 32.098L29.7777 30.1806L28.8056 31.1527L30.723 33.0701C28.5677 35.0116 25.7703 36.2409 22.6875 36.4024V33.6875H21.3125V36.4024C18.2297 36.2409 15.4323 35.0109 13.277 33.0701L15.1944 31.1527L14.2223 30.1806L12.3049 32.098C10.3634 29.9427 9.13412 27.1453 8.97256 24.0625H11.6875V22.6875H8.97256C9.13412 19.6047 10.3641 16.8073 12.3049 14.652L14.2223 16.5694L15.1944 15.5973L13.277 13.6799C15.4323 11.7384 18.2297 10.5091 21.3125 10.3476V13.0625H22.6875V10.3476C25.7703 10.5091 28.5677 11.7391 30.723 13.6799L28.8056 15.5973L29.7777 16.5694L31.6951 14.652C33.6366 16.8073 34.8659 19.6047 35.0274 22.6875H32.3125V24.0625H35.0274Z" fill="black"/>
</svg>
