<svg width="43" height="43" viewBox="0 0 43 43" fill="none" xmlns="http://www.w3.org/2000/svg">
<path d="M21.5 36.9874L11.2895 30.0254C9.26852 28.6474 8.0625 26.365 8.0625 23.9194V11.2331L8.56641 11.1027C12.1153 10.1863 14.8894 7.41213 15.8059 3.86328L15.9362 3.35938H27.0638L27.1941 3.86328C28.1106 7.41213 30.8848 10.1863 34.4336 11.1027L34.9375 11.2331V23.9194C34.9375 26.365 33.7315 28.6474 31.7105 30.0254L21.5 36.9874Z" fill="#96C12A"/>
<path d="M21.5 8.73438C15.5727 8.73438 10.75 13.5571 10.75 19.4844C10.75 25.4117 15.5727 30.2344 21.5 30.2344C27.4273 30.2344 32.25 25.4117 32.25 19.4844C32.25 13.5571 27.4273 8.73438 21.5 8.73438ZM30.872 20.1562C30.7235 22.2444 29.8944 24.1432 28.6004 25.6347L27.6759 24.7102L26.7258 25.6603L27.6503 26.5848C26.1588 27.8788 24.2594 28.7079 22.1719 28.8564V27.5469H20.8281V28.8564C18.7399 28.7079 16.8412 27.8788 15.3497 26.5848L16.2742 25.6603L15.3241 24.7102L14.3996 25.6347C13.1056 24.1432 12.2765 22.2438 12.128 20.1562H13.4375V18.8125H12.128C12.2765 16.7243 13.1056 14.8256 14.3996 13.334L15.3241 14.2585L16.2742 13.3085L15.3497 12.384C16.8412 11.09 18.7406 10.2609 20.8281 10.1124V11.4219H22.1719V10.1124C24.2601 10.2609 26.1588 11.09 27.6503 12.384L26.7258 13.3085L27.6759 14.2585L28.6004 13.334C29.8944 14.8256 30.7235 16.725 30.872 18.8125H29.5625V20.1562H30.872Z" fill="black"/>
<path d="M37.625 23.9194V8.73438H36.9531C32.8782 8.73438 29.5625 5.41867 29.5625 1.34375V0.671875H13.4375V1.34375C13.4375 5.41867 10.1218 8.73438 6.04688 8.73438H5.375V23.9194C5.375 27.2546 7.02042 30.3674 9.77578 32.246L15.0614 35.8499C10.791 36.1818 5.375 36.9914 5.375 38.9688C5.375 42.2341 19.8492 42.3281 21.5 42.3281C23.1508 42.3281 37.625 42.2341 37.625 38.9688C37.625 36.9941 32.2372 36.1825 27.9392 35.8499L33.2242 32.246C35.9796 30.3674 37.625 27.2546 37.625 23.9194ZM36.2477 38.9694C35.5912 39.726 30.3546 40.9844 21.5 40.9844C12.6454 40.9844 7.40877 39.726 6.75234 38.9694C7.20452 38.4682 10.0775 37.4517 16.8634 37.0781L19.8949 39.1448C20.3692 39.4693 20.9249 39.6406 21.5 39.6406C22.0751 39.6406 22.6308 39.4693 23.1058 39.1455L26.1366 37.0788C32.9178 37.4517 35.7948 38.4669 36.2477 38.9694ZM22.3486 38.0348C21.8467 38.3775 21.154 38.3775 20.6521 38.0348L10.533 31.136C8.14447 29.5074 6.71875 26.8098 6.71875 23.9194V10.0526C11.0006 9.72539 14.4285 6.29748 14.7557 2.01562H28.2443C28.5715 6.29748 31.9994 9.72539 36.2812 10.0526V23.9194C36.2812 26.8098 34.8555 29.5074 32.467 31.136L22.3486 38.0348Z" fill="black"/>
<path d="M21.34 18.166C21.952 18.166 22.453 18.352 22.843 18.724C23.239 19.096 23.437 19.561 23.437 20.119C23.437 20.689 23.242 21.163 22.852 21.541C22.462 21.919 21.976 22.108 21.394 22.108C20.818 22.108 20.338 21.928 19.954 21.568C19.576 21.208 19.378 20.749 19.36 20.191H20.332C20.344 20.485 20.449 20.725 20.647 20.911C20.845 21.097 21.094 21.19 21.394 21.19C21.7 21.19 21.952 21.088 22.15 20.884C22.354 20.68 22.456 20.425 22.456 20.119C22.456 20.017 22.441 19.918 22.411 19.822C22.387 19.726 22.351 19.639 22.303 19.561C22.255 19.477 22.195 19.402 22.123 19.336C22.057 19.27 21.982 19.213 21.898 19.165C21.814 19.117 21.721 19.081 21.619 19.057C21.523 19.033 21.418 19.021 21.304 19.021H19.72L19.603 18.886L19.927 16.015H23.023V16.897H20.71L20.575 18.166H21.34Z" fill="black"/>
</svg>
