<svg width="40" height="40" viewBox="0 0 40 40" fill="none" xmlns="http://www.w3.org/2000/svg">
<g clip-path="url(#clip0_30_272)">
<path d="M10.625 27.5H29.375V32.5H10.625V27.5Z" fill="#96C12A"/>
<path d="M6.25 12.5C5.21625 12.5 4.375 11.6588 4.375 10.625C4.375 9.59125 5.21625 8.75 6.25 8.75C7.28375 8.75 8.125 9.59125 8.125 10.625C8.125 11.6588 7.28375 12.5 6.25 12.5Z" fill="#96C12A"/>
<path d="M33.75 12.5C32.7162 12.5 31.875 11.6588 31.875 10.625C31.875 9.59125 32.7162 8.75 33.75 8.75C34.7838 8.75 35.625 9.59125 35.625 10.625C35.625 11.6588 34.7838 12.5 33.75 12.5Z" fill="#96C12A"/>
<path d="M11.875 4.375C10.8412 4.375 10 3.53375 10 2.5C10 1.46625 10.8412 0.625 11.875 0.625C12.9088 0.625 13.75 1.46625 13.75 2.5C13.75 3.53375 12.9088 4.375 11.875 4.375Z" fill="#96C12A"/>
<path d="M28.125 4.375C27.0912 4.375 26.25 3.53375 26.25 2.5C26.25 1.46625 27.0912 0.625 28.125 0.625C29.1588 0.625 30 1.46625 30 2.5C30 3.53375 29.1588 4.375 28.125 4.375Z" fill="#96C12A"/>
<path d="M20 13.125C7.41562 13.125 0.625 16.6669 0.625 20V20.625V21.25V21.875L2.6575 35.6413C2.9725 37.77 4.83313 39.375 6.98563 39.375H33.0144C35.1663 39.375 37.0275 37.77 37.3425 35.6413L39.3681 21.9669L39.3719 21.25H39.375V20C39.375 16.6669 32.5844 13.125 20 13.125ZM3.89375 35.4581L1.88187 21.875H3.48187C5.09375 21.875 6.43062 23.085 6.59125 24.6887L6.87875 27.5619L6.92312 27.5575L8.05438 38.125H6.985C5.44812 38.125 4.11937 36.9788 3.89375 35.4581ZM12.9481 27.5444L14.1944 27.455L13.9819 24.4806C13.9338 23.8 14.1631 23.1494 14.6281 22.6494C15.0931 22.15 15.7256 21.875 16.4087 21.875H16.9425C18.2838 21.875 19.375 22.9663 19.375 24.3081V27.4825H20.625V24.3081C20.625 22.9663 21.7163 21.875 23.0581 21.875H23.5919C24.275 21.875 24.9069 22.15 25.3725 22.65C25.8375 23.15 26.0669 23.8 26.0188 24.4806L25.8056 27.4587L27.0519 27.5481L27.265 24.57C27.265 24.57 27.265 24.57 27.265 24.5694L27.2962 24.1344C27.3856 22.8675 28.4519 21.875 29.7225 21.875C30.4119 21.875 31.0706 22.1687 31.5319 22.6819C31.9931 23.195 32.215 23.8819 32.1419 24.5675L30.6888 38.125H26.2963L26.6919 32.5869L25.4456 32.4975L25.0431 38.125H20.625V32.4975H19.375V38.125H14.9569L14.555 32.4981L13.3088 32.5875L13.7038 38.125H9.31125L7.85875 24.5669C7.78563 23.8812 8.0075 23.1944 8.46875 22.6813C8.93 22.1681 9.58875 21.875 10.2775 21.875C11.5475 21.875 12.6137 22.8675 12.7044 24.1344L12.9481 27.5444ZM36.1063 35.4581C35.8806 36.9788 34.5519 38.125 33.0144 38.125H31.945L33.0769 27.5581L33.1213 27.5625L33.4087 24.6894C33.57 23.085 34.9069 21.875 36.5187 21.875H38.1188L36.1063 35.4581ZM36.5187 20.625C35.0344 20.625 33.7206 21.36 32.9287 22.5C32.7981 22.2675 32.6425 22.0475 32.4613 21.8456C31.7638 21.07 30.7656 20.625 29.7225 20.625C28.4519 20.625 27.3275 21.2881 26.6637 22.2863C26.5512 22.115 26.4281 21.95 26.2869 21.7981C25.5919 21.0525 24.61 20.625 23.5912 20.625H23.0575C21.785 20.625 20.6613 21.2744 19.9994 22.2581C19.3381 21.2744 18.2144 20.625 16.9419 20.625H16.4081C15.3894 20.625 14.4075 21.0525 13.7131 21.7981C13.5719 21.95 13.4487 22.115 13.3362 22.2863C12.6731 21.2881 11.5481 20.625 10.2775 20.625C9.23438 20.625 8.23563 21.07 7.53875 21.8462C7.3575 22.0475 7.20188 22.2675 7.07125 22.5006C6.27938 21.3606 4.96563 20.6256 3.48125 20.6256H1.875V20.0006C1.875 17.34 9.31875 14.3756 20 14.3756C30.6812 14.3756 38.125 17.34 38.125 20.0006V20.6256H36.5187V20.625Z" fill="black"/>
<path d="M22.2463 9.6375C21.2456 10.0825 20 10.6356 20 11.875H21.25C21.25 11.4481 22.0144 11.1088 22.7537 10.7806C23.7544 10.3356 25 9.7825 25 8.54312C25 7.30375 23.755 6.75 22.7537 6.305C22.015 5.97625 21.25 5.63687 21.25 5.20875C21.25 4.78125 22.0144 4.44125 22.7537 4.11312C23.7544 3.66875 25 3.11437 25 1.875H23.75C23.75 2.3025 22.985 2.6425 22.2463 2.97125C21.245 3.41563 20 3.96937 20 5.20875C20 6.44812 21.2456 7.0025 22.2463 7.44688C22.9856 7.77563 23.75 8.11562 23.75 8.54312C23.75 8.97 22.9856 9.30938 22.2463 9.6375Z" fill="black"/>
<path d="M15.9962 9.6375C14.9956 10.0825 13.75 10.6356 13.75 11.875H15C15 11.4481 15.7644 11.1088 16.5038 10.7806C17.5044 10.3356 18.75 9.7825 18.75 8.54312C18.75 7.30375 17.505 6.75 16.5038 6.305C15.765 5.97625 15 5.63687 15 5.20875C15 4.78125 15.7644 4.44125 16.5038 4.11312C17.5044 3.66875 18.75 3.11437 18.75 1.875H17.5C17.5 2.3025 16.735 2.6425 15.9962 2.97125C14.995 3.41563 13.75 3.96937 13.75 5.20875C13.75 6.44812 14.9956 7.0025 15.9962 7.44688C16.7356 7.77563 17.5 8.11562 17.5 8.54312C17.5 8.97 16.7356 9.30938 15.9962 9.6375Z" fill="black"/>
<path d="M13.0906 16.355C12.58 16.695 11.9863 16.875 11.3731 16.875H8.75V18.125H11.3731C12.2338 18.125 13.0669 17.8725 13.7838 17.395C14.295 17.055 14.8887 16.875 15.5019 16.875H17.5V15.625H15.5019C14.6412 15.625 13.8081 15.8775 13.0906 16.355Z" fill="black"/>
<path d="M31.2844 18.23C30.5669 17.7525 29.7337 17.5 28.8731 17.5H26.875V18.75H28.8731C29.4856 18.75 30.08 18.93 30.5906 19.27C31.3081 19.7475 32.1413 20 33.0019 20H35.625V18.75H33.0019C32.3888 18.75 31.795 18.57 31.2844 18.23Z" fill="black"/>
</g>
<defs>
<clipPath id="clip0_30_272">
<rect width="40" height="40" fill="white"/>
</clipPath>
</defs>
</svg>
