<svg width="41" height="41" viewBox="0 0 41 41" fill="none" xmlns="http://www.w3.org/2000/svg">
<g clip-path="url(#clip0_241_44)">
<path d="M21.5678 37.7962C21.3923 37.7962 21.2149 37.786 21.0387 37.7655C19.0861 37.5368 17.4499 35.964 17.1495 34.0274C16.8804 32.2997 17.6069 30.6155 19.0156 29.6366V5.76562C19.0156 4.35241 20.1649 3.20312 21.5781 3.20312C22.9913 3.20312 24.1406 4.35241 24.1406 5.76562V29.6366C25.3347 30.4707 26.0625 31.8468 26.0625 33.3125C26.0625 34.5918 25.5141 35.8135 24.557 36.6642C23.7338 37.3965 22.6665 37.7962 21.5678 37.7962Z" fill="#96C12A"/>
<path d="M35.6719 4.48438C33.552 4.48438 31.8281 6.2083 31.8281 8.32812C31.8281 10.448 33.552 12.1719 35.6719 12.1719C37.7917 12.1719 39.5156 10.448 39.5156 8.32812C39.5156 6.2083 37.7917 4.48438 35.6719 4.48438ZM35.6719 10.8906C34.2587 10.8906 33.1094 9.74134 33.1094 8.32812C33.1094 6.91491 34.2587 5.76562 35.6719 5.76562C37.0851 5.76562 38.2344 6.91491 38.2344 8.32812C38.2344 9.74134 37.0851 10.8906 35.6719 10.8906Z" fill="black"/>
<path d="M35.0312 0.640625H36.3125V3.20312H35.0312V0.640625Z" fill="black"/>
<path d="M29.7785 3.34595L30.6845 2.43997L32.4964 4.25193L31.5905 5.15791L29.7785 3.34595Z" fill="black"/>
<path d="M27.9844 7.6875H30.5469V8.96875H27.9844V7.6875Z" fill="black"/>
<path d="M29.7787 13.3125L31.5907 11.5005L32.4967 12.4065L30.6847 14.2185L29.7787 13.3125Z" fill="black"/>
<path d="M35.0312 13.4531H36.3125V16.0156H35.0312V13.4531Z" fill="black"/>
<path d="M38.8362 12.405L39.7422 11.499L41.5541 13.311L40.6481 14.217L38.8362 12.405Z" fill="black"/>
<path d="M37.7969 7.6875H40.3594V8.96875H37.7969V7.6875Z" fill="black"/>
<path d="M38.8385 4.25488L40.6505 2.44292L41.5564 3.3489L39.7445 5.16086L38.8385 4.25488Z" fill="black"/>
<path d="M19.0156 9.60938H24.1406V10.8906H19.0156V9.60938Z" fill="black"/>
<path d="M7.756 8.262H8.351V12H9.121V7.1H8.603C8.484 7.429 8.351 7.716 7.756 7.716V8.262ZM10.7624 8.227C10.7624 7.877 10.9164 7.744 11.1614 7.744C11.4064 7.744 11.5604 7.877 11.5604 8.227V10.873C11.5604 11.223 11.4064 11.356 11.1614 11.356C10.9164 11.356 10.7624 11.223 10.7624 10.873V8.227ZM9.99239 10.824C9.99239 11.608 10.4054 12.056 11.1614 12.056C11.9174 12.056 12.3304 11.608 12.3304 10.824V8.276C12.3304 7.492 11.9174 7.044 11.1614 7.044C10.4054 7.044 9.99239 7.492 9.99239 8.276V10.824ZM13.5378 8.227C13.5378 7.877 13.6918 7.744 13.9368 7.744C14.1818 7.744 14.3358 7.877 14.3358 8.227V10.873C14.3358 11.223 14.1818 11.356 13.9368 11.356C13.6918 11.356 13.5378 11.223 13.5378 10.873V8.227ZM12.7678 10.824C12.7678 11.608 13.1808 12.056 13.9368 12.056C14.6928 12.056 15.1058 11.608 15.1058 10.824V8.276C15.1058 7.492 14.6928 7.044 13.9368 7.044C13.1808 7.044 12.7678 7.492 12.7678 8.276V10.824Z" fill="black"/>
<path d="M15.1719 5.76562C15.5257 5.76562 15.8125 5.47881 15.8125 5.125C15.8125 4.77119 15.5257 4.48438 15.1719 4.48438C14.8181 4.48438 14.5312 4.77119 14.5312 5.125C14.5312 5.47881 14.8181 5.76562 15.1719 5.76562Z" fill="black"/>
<path d="M11.3281 18.5781H10.0469C10.0469 19.1534 9.84764 19.402 9.54719 19.778C9.19869 20.2124 8.76562 20.7537 8.76562 21.778C8.76562 22.8037 9.19869 23.3444 9.54655 23.7794C9.84764 24.156 10.0469 24.4046 10.0469 24.9812C10.0469 25.5577 9.84764 25.8063 9.54655 26.183C9.19869 26.618 8.76562 27.1599 8.76562 28.1856C8.76562 29.2112 9.19869 29.7532 9.54655 30.1882C9.84764 30.5649 10.0469 30.8141 10.0469 31.3906H11.3281C11.3281 30.3643 10.8951 29.823 10.5472 29.388C10.2461 29.0113 10.0469 28.7621 10.0469 28.1856C10.0469 27.609 10.2461 27.3598 10.5472 26.9831C10.8951 26.5481 11.3281 26.0068 11.3281 24.9812C11.3281 23.9555 10.8951 23.4142 10.5472 22.9792C10.2461 22.6025 10.0469 22.354 10.0469 21.778C10.0469 21.2028 10.2461 20.9542 10.5466 20.5782C10.8951 20.1438 11.3281 19.6031 11.3281 18.5781Z" fill="black"/>
<path d="M8.125 18.5781H6.84375C6.84375 19.1534 6.64452 19.402 6.34406 19.778C5.99556 20.2124 5.5625 20.7537 5.5625 21.778C5.5625 22.8037 5.99556 23.3444 6.34342 23.7794C6.64452 24.156 6.84375 24.4046 6.84375 24.9812C6.84375 25.5577 6.64452 25.8063 6.34342 26.183C5.99556 26.618 5.5625 27.1599 5.5625 28.1856C5.5625 29.2112 5.99556 29.7532 6.34342 30.1882C6.64452 30.5649 6.84375 30.8141 6.84375 31.3906H8.125C8.125 30.3643 7.69194 29.823 7.34408 29.388C7.04298 29.0113 6.84375 28.7621 6.84375 28.1856C6.84375 27.609 7.04298 27.3598 7.34408 26.9831C7.69194 26.5481 8.125 26.0068 8.125 24.9812C8.125 23.9555 7.69194 23.4142 7.34408 22.9792C7.04298 22.6025 6.84375 22.354 6.84375 21.778C6.84375 21.2028 7.04298 20.9542 7.34344 20.5782C7.69194 20.1438 8.125 19.6031 8.125 18.5781Z" fill="black"/>
<path d="M26.7031 5.76563C26.7031 2.93983 24.4039 0.640625 21.5781 0.640625C19.8926 0.640625 18.3987 1.46255 17.464 2.72266C15.9432 1.37542 14.0213 0.640625 11.9688 0.640625C7.37675 0.640625 3.64062 4.37675 3.64062 8.96875C3.64062 13.5608 7.37675 17.2969 11.9688 17.2969C13.5684 17.2969 15.1187 16.8286 16.4531 15.9708V28.4822C14.4653 30.5886 13.9656 33.6219 15.1892 36.2882C16.136 38.3504 18.1098 39.8693 20.3404 40.2524C20.7485 40.3229 21.1572 40.3575 21.5634 40.3575C23.2239 40.3575 24.8331 39.7809 26.1138 38.7021C27.7095 37.3568 28.625 35.3926 28.625 33.3125C28.625 31.5309 27.9274 29.7865 26.7031 28.4828V5.76563ZM11.9688 16.0156C8.08336 16.0156 4.92188 12.8541 4.92188 8.96875C4.92188 5.08336 8.08336 1.92188 11.9688 1.92188C13.7977 1.92188 15.5005 2.61823 16.8176 3.87834C16.5851 4.46323 16.4531 5.09874 16.4531 5.76563V14.384C15.1879 15.4339 13.6081 16.0156 11.9688 16.0156ZM27.3438 33.3125C27.3438 35.014 26.5942 36.6213 25.288 37.7226C23.9843 38.8206 22.2591 39.2825 20.557 38.9904C18.737 38.6777 17.1271 37.4375 16.3538 35.7546C15.3192 33.5015 15.7856 30.9287 17.5422 29.201L17.7344 29.012V5.76563C17.7344 3.6458 19.4583 1.92188 21.5781 1.92188C23.698 1.92188 25.4219 3.6458 25.4219 5.76563V29.012L25.6134 29.2003C26.7134 30.2824 27.3438 31.7814 27.3438 33.3125Z" fill="black"/>
<path d="M13.7503 29.388C13.4492 29.0113 13.25 28.7621 13.25 28.1856C13.25 27.609 13.4492 27.3598 13.7503 26.9831C14.0982 26.5481 14.5312 26.0068 14.5312 24.9812C14.5312 23.9555 14.0982 23.4142 13.7503 22.9792C13.4492 22.6025 13.25 22.354 13.25 21.778C13.25 21.2028 13.4492 20.9542 13.7497 20.5782C14.0982 20.1438 14.5312 19.6031 14.5312 18.5781H13.25C13.25 19.1534 13.0508 19.402 12.7503 19.778C12.4018 20.2124 11.9688 20.7537 11.9688 21.778C11.9688 22.8037 12.4018 23.3444 12.7497 23.7794C13.0508 24.156 13.25 24.4046 13.25 24.9812C13.25 25.5577 13.0508 25.8063 12.7497 26.183C12.4018 26.618 11.9688 27.1599 11.9688 28.1856C11.9688 29.2112 12.4018 29.7532 12.7497 30.1882C13.0508 30.5649 13.25 30.8141 13.25 31.3906H14.5312C14.5312 30.3643 14.0982 29.823 13.7503 29.388Z" fill="black"/>
</g>
<defs>
<clipPath id="clip0_241_44">
<rect width="41" height="41" fill="white"/>
</clipPath>
</defs>
</svg>
