<svg width="36" height="36" viewBox="0 0 36 36" fill="none" xmlns="http://www.w3.org/2000/svg">
<path d="M5.60944 1.17798H1.25319C0.651479 1.17798 0.164124 1.66533 0.164124 2.26704V14.2467V28.8565C0.164124 29.7408 0.826274 30.5342 1.71005 30.5799C2.65209 30.6295 3.43131 29.8802 3.43131 28.9491V18.6955C3.43131 17.8112 4.09346 17.0178 4.97723 16.9721C5.91927 16.9226 6.6985 17.6718 6.6985 18.603V20.7811C6.6985 21.984 7.67375 22.9592 8.87662 22.9592H9.96569V26.1338C9.96569 27.0182 10.6278 27.8115 11.5116 27.8573C12.4536 27.9068 13.2329 27.1576 13.2329 26.2264V8.80142H6.6985C6.09679 8.80142 5.60944 8.31406 5.60944 7.71235V1.17798Z" fill="#96C12A"/>
<path d="M33.0968 4.64516H29.0323V1.74194C29.0323 0.781548 28.2507 0 27.2903 0H7.54839C6.79239 0 6.15368 0.487161 5.91329 1.16129H1.74194C0.781548 1.16129 0 1.94284 0 2.90323V31.3548C0 32.6357 1.04168 33.6774 2.32258 33.6774C3.60348 33.6774 4.64516 32.6357 4.64516 31.3548V20.3226C4.64516 19.6821 5.166 19.1613 5.80645 19.1613C6.4469 19.1613 6.96774 19.6821 6.96774 20.3226V22.6452C6.96774 24.246 8.27013 25.5484 9.87097 25.5484H10.4516V26.7097V28.4516C10.4516 29.7325 11.4933 30.7742 12.7742 30.7742C14.0551 30.7742 15.0968 29.7325 15.0968 28.4516V10.4516H27.2903C28.2507 10.4516 29.0323 9.67006 29.0323 8.70968V5.80645H33.0968C34.0572 5.80645 34.8387 6.588 34.8387 7.54839V12.017C34.8387 12.8508 34.2447 13.5703 33.426 13.7276L22.0965 15.9062C20.7319 16.1686 19.7419 17.3677 19.7419 18.7572V19.7419H17.4194V33.0968C17.4194 34.6976 18.7217 36 20.3226 36C21.9234 36 23.2258 34.6976 23.2258 33.0968V19.7419H20.9032V18.7572C20.9032 17.9234 21.4972 17.2045 22.3159 17.0466L33.6455 14.868C35.01 14.6055 36 13.4065 36 12.017V7.54839C36 5.94755 34.6976 4.64516 33.0968 4.64516ZM13.9355 28.4516C13.9355 29.0921 13.4146 29.6129 12.7742 29.6129C12.1337 29.6129 11.6129 29.0921 11.6129 28.4516V26.7097V24.3871V22.0645H10.4516V24.3871H9.87097C8.91058 24.3871 8.12903 23.6055 8.12903 22.6452V20.3226C8.12903 19.0417 7.08735 18 5.80645 18C4.52555 18 3.48387 19.0417 3.48387 20.3226V31.3548C3.48387 31.9953 2.96303 32.5161 2.32258 32.5161C1.68213 32.5161 1.16129 31.9953 1.16129 31.3548V2.90323C1.16129 2.58329 1.42142 2.32258 1.74194 2.32258H5.80645V8.70968C5.80645 9.67006 6.588 10.4516 7.54839 10.4516H13.9355V28.4516ZM27.871 8.70968C27.871 9.02961 27.6108 9.29032 27.2903 9.29032H7.54839C7.22787 9.29032 6.96774 9.02961 6.96774 8.70968V1.74194C6.96774 1.422 7.22787 1.16129 7.54839 1.16129H27.2903C27.6108 1.16129 27.871 1.422 27.871 1.74194V8.70968ZM22.0645 24.3871H20.9032V25.5484H22.0645V29.0323H20.9032V30.1935H22.0645V33.0968C22.0645 34.0572 21.283 34.8387 20.3226 34.8387C19.3622 34.8387 18.5806 34.0572 18.5806 33.0968V27.871H19.7419V26.7097H18.5806V23.2258H19.7419V22.0645H18.5806V20.9032H22.0645V24.3871Z" fill="black"/>
<path d="M2.88673 7.16797H1.79767V15.3359H2.88673V7.16797Z" fill="black"/>
<path d="M19.2227 30.0381H18.1336V31.1271H19.2227V30.0381Z" fill="black"/>
<path d="M2.88673 4.98975H1.79767V6.07881H2.88673V4.98975Z" fill="black"/>
</svg>
