<svg width="51" height="51" viewBox="0 0 51 51" fill="none" xmlns="http://www.w3.org/2000/svg">
<path d="M38.877 18.3933H30.5164V20.0654H38.877C40.2599 20.0654 41.3853 21.1907 41.3853 22.5737V25.9397C40.6847 25.4088 39.8218 25.082 38.877 25.082H12.123C10.7401 25.082 9.61469 23.9567 9.61469 22.5737C9.61469 21.1907 10.7401 20.0654 12.123 20.0654H21.3198V18.3933H12.123C9.81803 18.3933 7.94257 20.2686 7.94257 22.5737V46.8195C7.94257 49.1244 9.81785 50.9999 12.123 50.9999H38.877C41.182 50.9999 43.0574 49.1246 43.0574 46.8195V44.3112V32.6063V29.2621V22.5735C43.0573 20.2686 41.182 18.3933 38.877 18.3933ZM41.3851 42.6393H31.3524C29.0474 42.6393 27.172 40.764 27.172 38.4589C27.172 36.1537 29.0472 34.2784 31.3524 34.2784H41.3851V42.6393ZM41.3851 32.6065H31.3524C28.1251 32.6065 25.4998 35.2325 25.4998 38.459C25.4998 41.6856 28.1251 44.3116 31.3524 44.3116H41.3851V46.8195C41.3851 48.2023 40.2599 49.3278 38.8769 49.3278H12.1228C10.74 49.3278 9.61452 48.2025 9.61452 46.8195V25.9162C10.3135 26.442 11.1821 26.754 12.1228 26.754H38.8769C40.2597 26.754 41.3851 27.8792 41.3851 29.2622V32.6065Z" fill="black"/>
<path d="M38.877 21.7378H12.123V23.4099H38.877V21.7378Z" fill="black"/>
<path d="M25.5 22.5738C29.194 22.5738 32.1885 19.5793 32.1885 15.8853C32.1885 12.1913 29.194 9.19678 25.5 9.19678C21.806 9.19678 18.8115 12.1913 18.8115 15.8853C18.8115 19.5793 21.806 22.5738 25.5 22.5738Z" fill="#96C12A"/>
<path d="M26.336 18.3933H24.6638C24.2031 18.3933 23.8277 18.0179 23.8277 17.5572H22.1555C22.1555 18.94 23.2808 20.0655 24.6638 20.0655V20.9016H26.336V20.0655C27.7188 20.0655 28.8442 18.9402 28.8442 17.5572C28.8442 16.1742 27.719 15.0489 26.336 15.0489H24.6638C24.2031 15.0489 23.8277 14.6734 23.8277 14.2127C23.8277 13.752 24.2031 13.3769 24.6638 13.3769H26.336C26.7967 13.3769 27.1721 13.7524 27.1721 14.2131H28.8442C28.8442 12.8303 27.719 11.7048 26.336 11.7048V10.8687H24.6638V11.7048C23.281 11.7048 22.1555 12.8301 22.1555 14.2131C22.1555 15.5961 23.2808 16.7214 24.6638 16.7214H26.336C26.7967 16.7214 27.1721 17.0968 27.1721 17.5575C27.1721 18.0182 26.7967 18.3933 26.336 18.3933Z" fill="black"/>
<path d="M28.8443 38.459C28.8443 39.8418 29.9695 40.9673 31.3526 40.9673C32.7356 40.9673 33.8608 39.842 33.8608 38.459C33.8608 37.076 32.7356 35.9507 31.3526 35.9507C29.9695 35.9507 28.8443 37.0761 28.8443 38.459ZM32.1885 38.459C32.1885 38.9204 31.8131 39.2951 31.3524 39.2951C30.8917 39.2951 30.5162 38.9206 30.5162 38.459C30.5162 37.9974 30.8917 37.6228 31.3524 37.6228C31.8131 37.6228 32.1885 37.9976 32.1885 38.459Z" fill="black"/>
<path d="M26.336 0H24.6638V6.68852H26.336V0Z" fill="black"/>
<path d="M32.1885 2.5083H30.5164V9.19681H32.1885V2.5083Z" fill="black"/>
<path d="M20.4836 4.18042H18.8115V9.19681H20.4836V4.18042Z" fill="black"/>
</svg>
