<svg width="16" height="16" viewBox="0 0 16 16" fill="none" xmlns="http://www.w3.org/2000/svg">
<g clip-path="url(#clip0_143_94)">
<path d="M7.55554 7.99988C8.65456 7.99988 9.6061 7.60569 10.3838 6.82797C11.1612 6.05037 11.5555 5.09893 11.5555 3.99975C11.5555 2.90095 11.1614 1.94939 10.3837 1.17153C9.60597 0.394062 8.65443 -0.00012207 7.55554 -0.00012207C6.4564 -0.00012207 5.50499 0.394062 4.72741 1.17166C3.94984 1.94926 3.55554 2.90083 3.55554 3.99975C3.55554 5.09893 3.94984 6.0505 4.72741 6.8281C5.50524 7.60557 6.45678 7.99988 7.55554 7.99988ZM5.41566 1.8598C6.0123 1.26314 6.71221 0.973111 7.55554 0.973111C8.39875 0.973111 9.09878 1.26314 9.69555 1.8598C10.2922 2.45659 10.5823 3.15665 10.5823 3.99975C10.5823 4.84311 10.2922 5.54304 9.69555 6.13983C9.09878 6.73661 8.39875 7.02664 7.55554 7.02664C6.71246 7.02664 6.01256 6.73649 5.41566 6.13983C4.81889 5.54316 4.52874 4.84311 4.52874 3.99975C4.52874 3.15665 4.81889 2.45659 5.41566 1.8598Z" fill="#96C12A"/>
<path d="M14.1899 12.4244C14.1683 12.1228 14.1247 11.7939 14.0604 11.4466C13.9956 11.0966 13.912 10.7658 13.8121 10.4634C13.7087 10.1509 13.5683 9.84229 13.3946 9.54654C13.2145 9.23957 13.0028 8.97227 12.7653 8.75231C12.5169 8.5222 12.2128 8.33719 11.8612 8.20224C11.5108 8.068 11.1224 8 10.707 8C10.5439 8 10.3861 8.06481 10.0814 8.25691C9.89389 8.37533 9.67454 8.51228 9.42971 8.66376C9.22036 8.79292 8.93675 8.91394 8.58645 9.02351C8.24469 9.13059 7.89768 9.1849 7.55506 9.1849C7.21269 9.1849 6.86568 9.13059 6.52367 9.02351C6.17374 8.91406 5.89001 8.79304 5.68103 8.66388C5.43851 8.51382 5.21904 8.37686 5.02871 8.25679C4.72426 8.0647 4.56648 7.99988 4.40334 7.99988C3.98781 7.99988 3.59959 8.068 3.24929 8.20236C2.8979 8.33707 2.59369 8.52208 2.34507 8.75243C2.10756 8.9725 1.89589 9.23968 1.71592 9.54654C1.54242 9.84229 1.40196 10.1508 1.29856 10.4636C1.1987 10.7659 1.11518 11.0966 1.05032 11.4466C0.98594 11.7934 0.942412 12.1225 0.920831 12.4247C0.899615 12.7203 0.888885 13.0278 0.888885 13.3386C0.888885 14.1464 1.15408 14.8003 1.67703 15.2826C2.19352 15.7586 2.8768 15.9999 3.70799 15.9999H11.4031C12.2341 15.9999 12.9173 15.7586 13.434 15.2826C13.957 14.8007 14.2222 14.1465 14.2222 13.3384C14.2221 13.0266 14.2112 12.7191 14.1899 12.4244ZM12.7882 14.6256C12.4469 14.9401 11.9939 15.093 11.403 15.093H3.70799C3.117 15.093 2.66392 14.9401 2.32276 14.6257C1.98807 14.3172 1.82542 13.8961 1.82542 13.3386C1.82542 13.0486 1.83529 12.7623 1.85504 12.4874C1.87431 12.2178 1.91369 11.9215 1.9721 11.6068C2.02977 11.2959 2.10317 11.0042 2.19047 10.7401C2.27423 10.4868 2.38848 10.236 2.53016 9.99448C2.66538 9.76425 2.82096 9.56673 2.99263 9.40757C3.15321 9.25869 3.35561 9.13685 3.59411 9.04547C3.81467 8.96093 4.06255 8.91465 4.33165 8.90768C4.36445 8.92457 4.42285 8.9568 4.51747 9.01654C4.70999 9.13803 4.9319 9.27664 5.17722 9.42835C5.45375 9.59908 5.81003 9.75327 6.23568 9.88633C6.67084 10.0226 7.11466 10.0918 7.55519 10.0918C7.99571 10.0918 8.43965 10.0226 8.87457 9.88645C9.30059 9.75315 9.65674 9.59908 9.93364 9.42812C10.1847 9.27274 10.4004 9.13815 10.5929 9.01654C10.6875 8.95692 10.7459 8.92457 10.7787 8.90768C11.0479 8.91465 11.2958 8.96093 11.5165 9.04547C11.7549 9.13685 11.9573 9.25881 12.1179 9.40757C12.2895 9.56661 12.4451 9.76413 12.5803 9.99459C12.7221 10.236 12.8365 10.4869 12.9201 10.7399C13.0076 11.0044 13.0811 11.296 13.1386 11.6067C13.1969 11.922 13.2364 12.2184 13.2557 12.4875V12.4878C13.2756 12.7616 13.2856 13.0478 13.2857 13.3386C13.2856 13.8962 13.1229 14.3172 12.7882 14.6256Z" fill="#96C12A"/>
</g>
<defs>
<clipPath id="clip0_143_94">
<rect width="16" height="16" fill="white"/>
</clipPath>
</defs>
</svg>
