<svg width="16" height="16" viewBox="0 0 16 16" fill="none" xmlns="http://www.w3.org/2000/svg">
<path d="M15.6039 3.25478C15.8196 3.25478 15.9961 3.07831 16 2.86262V0.395956C16 0.176349 15.8235 -0.00012207 15.6039 -0.00012207H13.1373C12.9216 -0.00012207 12.7451 0.176349 12.7451 0.395956V1.25478H3.2549V0.395956C3.2549 0.18027 3.07843 0.0037995 2.86275 -0.00012207H0.396078C0.180392 -0.00012207 0.00392157 0.176349 0 0.395956V2.86262C0 3.07831 0.176471 3.25478 0.396078 3.25478H1.2549V12.745H0.396078C0.180392 12.745 0.00392157 12.9214 0 13.1371V15.6038C0 15.8195 0.176471 15.996 0.396078 15.9999H2.86275C3.07843 15.9999 3.2549 15.8234 3.2549 15.6038V14.745H12.7451V15.6038C12.7451 15.8195 12.9216 15.996 13.1373 15.9999H15.6039C15.8196 15.9999 15.9961 15.8234 16 15.6038V13.1371C16 12.9214 15.8235 12.745 15.6039 12.745H14.7451V3.25478H15.6039ZM0.784314 2.47047V0.784192H2.47059V2.47047H0.784314ZM2.47059 15.2156H0.784314V13.5293H2.47059V15.2156ZM12.7451 13.1371V13.9607H3.2549V13.1371C3.2549 12.9214 3.07843 12.745 2.86275 12.745H2.03922V3.25478H2.86275C3.07843 3.25478 3.2549 3.07831 3.2549 2.86262V2.03909H12.7451V2.86262C12.7451 3.07831 12.9216 3.25478 13.1373 3.25478H13.9608V12.745H13.1373C12.9216 12.745 12.7451 12.9214 12.7451 13.1371ZM15.2157 13.5293V15.2156H13.5294V13.5293H15.2157ZM13.5294 2.47047V0.784192H15.2157V2.47047H13.5294Z" fill="#96C12A"/>
</svg>
